<?xml version="1.0" encoding="UTF-8"?>
<svg width="36px" height="20px" viewBox="0 0 36 20" version="1.1" xmlns="http://www.w3.org/2000/svg" xmlns:xlink="http://www.w3.org/1999/xlink">
    <!-- Generator: Sketch 51 (57462) - http://www.bohemiancoding.com/sketch -->
    <title>287585</title>
    <desc>Created with Sketch.</desc>
    <defs></defs>
    <g id="JC-" stroke="none" stroke-width="1" fill="none" fill-rule="evenodd">
        <g id="CART" transform="translate(-20.000000, -647.000000)" fill="#FFFFFF">
            <rect x="0" y="0" width="360" height="863"></rect>
            <g id="Group-2" transform="translate(9.000000, 632.000000)" fill-rule="nonzero">
                <g id="287585" transform="translate(11.000000, 15.000000)">
                    <path d="M35.25075,0.0243165468 L10.5006797,0.0243165468 L9,1.55906475 L7.500375,0.0243165468 L0.750375,0.0243165468 C0.336023437,0.0243165468 0,0.367841727 0,0.791726619 L0,19.2089209 C0,19.6328777 0.336023437,19.9756835 0.750375,19.9756835 L7.500375,19.9756835 L9,18.4423022 L10.5006797,19.9756835 L35.25075,19.9756835 C35.6650312,19.9756835 36,19.6328058 36,19.2089209 L36,0.791726619 C36,0.367841727 35.6649609,0.0243165468 35.25075,0.0243165468 Z M34.5007266,18.4423022 L11.1214688,18.4423022 L10.0612266,17.3568345 L9,16.2706475 L7.93982813,17.3568345 L6.87958594,18.4423022 L1.50067969,18.4423022 L1.50067969,1.55906475 L6.87958594,1.55906475 L7.93982813,2.64417266 L9,3.72935252 L10.0612266,2.6442446 L11.1214688,1.55913669 L34.5007266,1.55906475 L34.5007266,18.4423022 Z" id="Shape"></path>
                    <path d="M19.5006797,3.86122302 C17.8439062,3.86122302 16.500375,5.23589928 16.500375,6.93079137 C16.500375,8.62604317 17.8438359,10.0003597 19.5006797,10.0003597 C21.1572422,10.0003597 22.5,8.62604317 22.5,6.93079137 C22.5,5.23589928 21.1571719,3.86122302 19.5006797,3.86122302 Z M19.5006797,8.46553957 C18.6734531,8.46553957 18,7.77683453 18,6.93079137 C18,6.08446043 18.6734531,5.39604317 19.5006797,5.39604317 C20.3279062,5.39604317 21.0007266,6.08446043 21.0007266,6.93079137 C21.0007266,7.77683453 20.3279062,8.46553957 19.5006797,8.46553957 Z" id="Shape"></path>
                    <path d="M25.5007266,10.0003597 C23.8435313,10.0003597 22.5,11.3743885 22.5,13.0692086 C22.5,14.7640288 23.8434609,16.1401439 25.5007266,16.1401439 C27.1572188,16.1401439 28.50075,14.7641007 28.50075,13.0692086 C28.50075,11.3743165 27.1571484,10.0003597 25.5007266,10.0003597 Z M25.5007266,14.6046043 C24.6728672,14.6046043 24.00075,13.9169065 24.00075,13.0692086 C24.00075,12.2234532 24.6728672,11.5358273 25.5007266,11.5358273 C26.3279531,11.5358273 27,12.2235252 27,13.0692086 C27,13.9169065 26.3278828,14.6046043 25.5007266,14.6046043 Z" id="Shape"></path>
                    <path d="M27.7507266,3.86129496 C27.5439375,3.86129496 27.3557109,3.94697842 27.2198672,4.08597122 L16.7202422,14.8297122 C16.5848203,14.968705 16.500375,15.1597842 16.500375,15.3713669 C16.500375,15.7959712 16.8363984,16.1401439 17.2506797,16.1401439 C17.4571875,16.1401439 17.6449922,16.0534532 17.7814687,15.9151799 L28.2808125,5.17107914 C28.4172891,5.03244604 28.50075,4.84064748 28.50075,4.62870504 C28.50075,4.20510791 28.1643047,3.86129496 27.7507266,3.86129496 Z" id="Shape"></path>
                    <path d="M9,4.62863309 C8.58705469,4.62863309 8.25067969,4.97208633 8.25067969,5.39604317 C8.25067969,5.82 8.587125,6.16345324 9,6.16345324 C9.41533594,6.16345324 9.750375,5.82 9.750375,5.39604317 C9.750375,4.97208633 9.41533594,4.62863309 9,4.62863309 Z" id="Shape"></path>
                    <path d="M9,7.69820144 C8.58705469,7.69820144 8.25067969,8.04165468 8.25067969,8.46561151 C8.25067969,8.88920863 8.587125,9.23302158 9,9.23302158 C9.41533594,9.23302158 9.750375,8.88920863 9.750375,8.46561151 C9.750375,8.04165468 9.41533594,7.69820144 9,7.69820144 Z" id="Shape"></path>
                    <path d="M9,10.7677698 C8.58705469,10.7677698 8.25067969,11.1111511 8.25067969,11.5358273 C8.25067969,11.9583453 8.587125,12.302446 9,12.302446 C9.41533594,12.302446 9.750375,11.9583453 9.750375,11.5358273 C9.750375,11.1111511 9.41533594,10.7677698 9,10.7677698 Z" id="Shape"></path>
                    <path d="M9,13.8379856 C8.58705469,13.8379856 8.25067969,14.1808633 8.25067969,14.6046043 C8.25067969,15.0285612 8.587125,15.3713669 9,15.3713669 C9.41533594,15.3713669 9.750375,15.0284892 9.750375,14.6046043 C9.750375,14.1807914 9.41533594,13.8379856 9,13.8379856 Z" id="Shape"></path>
                </g>
            </g>
        </g>
    </g>
</svg>