<?xml version="1.0" encoding="UTF-8"?>
<svg width="14px" height="14px" viewBox="0 0 14 14" version="1.1" xmlns="http://www.w3.org/2000/svg" xmlns:xlink="http://www.w3.org/1999/xlink">
    <!-- Generator: Sketch 51 (57462) - http://www.bohemiancoding.com/sketch -->
    <title>Icon/ Delete</title>
    <desc>Created with Sketch.</desc>
    <defs></defs>
    <g id="JC-" stroke="none" stroke-width="1" fill="none" fill-rule="evenodd">
        <g id="CART" transform="translate(-333.000000, -157.000000)">
            <rect fill="#FFFFFF" x="0" y="0" width="360" height="863"></rect>
            <g id="Cart-Item-1" transform="translate(9.000000, 152.000000)" fill="#78909C">
                <g id="Icon/-Delete" transform="translate(319.000000, 0.000000)">
                    <path d="M6.78061505,18.8261414 C6.78470104,18.82695 6.78878703,18.8273543 6.79287305,18.8273543 C6.78975654,18.8273543 6.78617281,18.8268839 6.78212185,18.8259431 L6.78061505,18.8261414 Z M6.62527838,18.7371076 C6.61228658,18.7292601 6.60059396,18.7227205 6.59020045,18.7174888 C6.60059396,18.7227205 6.61228658,18.7292601 6.62527838,18.7371076 Z M6.62527838,18.7371076 C6.63827018,18.7449551 6.65256117,18.7541106 6.66815145,18.764574 C6.65256117,18.7541106 6.63827018,18.7449551 6.62527838,18.7371076 Z M19,7.57399103 C19,7.72047906 18.9428365,7.84865416 18.8285078,7.95852018 C18.7141791,8.0683862 18.5790654,8.12331839 18.4231626,8.12331839 L18.1113586,8.12331839 L18.1113586,17.9013453 C18.1113586,18.2047848 18.0022283,18.4637508 17.7839644,18.6782511 C17.5657005,18.8927514 17.3058664,19 17.0044543,19 L7.15144766,19 C6.85003561,19 6.59020154,18.8927514 6.37193764,18.6782511 C6.15367374,18.4637508 6.04454343,18.2047848 6.04454343,17.9013453 L6.04454343,8.12331839 L5.56124722,8.12331839 C5.40534443,8.12331839 5.27282905,8.0683862 5.1636971,7.95852018 C5.05456516,7.84865416 5,7.71786324 5,7.5661435 C5,7.41442376 5.05456516,7.28363284 5.1636971,7.17376682 C5.27282905,7.0639008 5.40534443,7.00896861 5.56124722,7.00896861 L8.4454343,7.00896861 L8.4454343,6.09865471 C8.4454343,5.79521522 8.55196627,5.5362492 8.76503341,5.32174888 C8.97810055,5.10724855 9.24053296,5 9.55233853,5 L14.4476615,5 C14.7490735,5 15.0089076,5.10724855 15.2271715,5.32174888 C15.4454354,5.5362492 15.5545657,5.79521522 15.5545657,6.09865471 L15.5545657,7.00896861 L18.4231626,7.00896861 C18.5894589,7.00896861 18.7271709,7.0639008 18.8363029,7.17376682 C18.9454348,7.28363284 19,7.41703957 19,7.57399103 Z M9.53674833,6.11434978 L9.53674833,7.00896861 L14.4476615,7.00896861 L14.4476615,6.11434978 L9.53674833,6.11434978 Z M17.0044543,17.9013453 L17.0044543,8.12331839 L7.15144766,8.12331839 L7.15144766,17.9013453 L17.0044543,17.9013453 Z M12.3741648,10.1793722 C12.4884935,10.2840065 12.545657,10.4147974 12.545657,10.5717489 L12.545657,15.8139013 C12.545657,15.9708528 12.4910919,16.1042595 12.3819599,16.2141256 C12.272828,16.3239916 12.1429109,16.3789238 11.9922049,16.3789238 C11.8414989,16.3789238 11.7115818,16.3239916 11.6024499,16.2141256 C11.4933179,16.1042595 11.4387528,15.9708528 11.4387528,15.8139013 L11.4387528,10.5717489 C11.4387528,10.4147974 11.4933179,10.2813907 11.6024499,10.1715247 C11.7115818,10.0616586 11.8414989,10.0067265 11.9922049,10.0067265 C12.1429109,10.0067265 12.2702296,10.0642745 12.3741648,10.1793722 Z M9.34966592,10.1793722 C9.46399463,10.2840065 9.52115813,10.4147974 9.52115813,10.5717489 L9.52115813,15.8139013 C9.52115813,15.9708528 9.46659297,16.1042595 9.35746102,16.2141256 C9.24832908,16.3239916 9.1158137,16.3789238 8.95991091,16.3789238 C8.80400813,16.3789238 8.67149275,16.3239916 8.5623608,16.2141256 C8.45322885,16.1042595 8.3986637,15.9708528 8.3986637,15.8139013 L8.3986637,10.5717489 C8.3986637,10.4147974 8.45322885,10.2813907 8.5623608,10.1715247 C8.67149275,10.0616586 8.80400813,10.0067265 8.95991091,10.0067265 C9.1158137,10.0067265 9.24573073,10.0642745 9.34966592,10.1793722 Z M15.3830735,10.1793722 C15.4974022,10.2840065 15.5545657,10.4147974 15.5545657,10.5717489 L15.5545657,15.8139013 C15.5545657,15.9708528 15.5000005,16.1042595 15.3908686,16.2141256 C15.2817366,16.3239916 15.1492213,16.3789238 14.9933185,16.3789238 C14.8374157,16.3789238 14.7049003,16.3239916 14.5957684,16.2141256 C14.4866364,16.1042595 14.4320713,15.9708528 14.4320713,15.8139013 L14.4320713,10.5717489 C14.4320713,10.4147974 14.4866364,10.2813907 14.5957684,10.1715247 C14.7049003,10.0616586 14.8374157,10.0067265 14.9933185,10.0067265 C15.1492213,10.0067265 15.2791383,10.0642745 15.3830735,10.1793722 Z" id="shape"></path>
                </g>
            </g>
        </g>
    </g>
</svg>