<?xml version="1.0" encoding="UTF-8"?>
<svg width="17px" height="17px" viewBox="0 0 17 17" version="1.1" xmlns="http://www.w3.org/2000/svg" xmlns:xlink="http://www.w3.org/1999/xlink">
    <!-- Generator: Sketch 51 (57462) - http://www.bohemiancoding.com/sketch -->
    <title>FilterBTN</title>
    <desc>Created with Sketch.</desc>
    <defs></defs>
    <g id="Symbols" stroke="none" stroke-width="1" fill="none" fill-rule="evenodd">
        <g id="BottomMenu" transform="translate(-113.000000, -18.000000)" fill="#5C6979">
            <g id="FilterBTN" transform="translate(113.000000, 18.000000)">
                <path d="M3.71031746,13.5714286 L3.71031746,15 L0,15 L0,13.5714286 L3.71031746,13.5714286 Z M7.42063492,12.1428571 C7.60334086,12.1428571 7.7614494,12.213541 7.89496528,12.3549107 C8.02848116,12.4962805 8.0952381,12.6636895 8.0952381,12.8571429 L8.0952381,15.7142857 C8.0952381,15.9077391 8.02848116,16.0751481 7.89496528,16.2165179 C7.7614494,16.3578876 7.60334086,16.4285714 7.42063492,16.4285714 L4.72222222,16.4285714 C4.53951628,16.4285714 4.38140774,16.3578876 4.24789187,16.2165179 C4.11437599,16.0751481 4.04761905,15.9077391 4.04761905,15.7142857 L4.04761905,12.8571429 C4.04761905,12.6636895 4.11437599,12.4962805 4.24789187,12.3549107 C4.38140774,12.213541 4.53951628,12.1428571 4.72222222,12.1428571 L7.42063492,12.1428571 Z M9.10714286,7.85714286 L9.10714286,9.28571429 L0,9.28571429 L0,7.85714286 L9.10714286,7.85714286 Z M2.36111111,2.14285714 L2.36111111,3.57142857 L0,3.57142857 L0,2.14285714 L2.36111111,2.14285714 Z M16.1904762,13.5714286 L16.1904762,15 L8.43253968,15 L8.43253968,13.5714286 L16.1904762,13.5714286 Z M6.07142857,0.714285714 C6.25413451,0.714285714 6.41224305,0.784969531 6.54575893,0.926339286 C6.67927481,1.06770904 6.74603175,1.23511808 6.74603175,1.42857143 L6.74603175,4.28571429 C6.74603175,4.47916763 6.67927481,4.64657667 6.54575893,4.78794643 C6.41224305,4.92931618 6.25413451,5 6.07142857,5 L3.37301587,5 C3.19030993,5 3.0322014,4.92931618 2.89868552,4.78794643 C2.76516964,4.64657667 2.6984127,4.47916763 2.6984127,4.28571429 L2.6984127,1.42857143 C2.6984127,1.23511808 2.76516964,1.06770904 2.89868552,0.926339286 C3.0322014,0.784969531 3.19030993,0.714285714 3.37301587,0.714285714 L6.07142857,0.714285714 Z M12.8174603,6.42857143 C13.0001663,6.42857143 13.1582748,6.49925525 13.2917907,6.640625 C13.4253066,6.78199475 13.4920635,6.94940379 13.4920635,7.14285714 L13.4920635,10 C13.4920635,10.1934533 13.4253066,10.3608624 13.2917907,10.5022321 C13.1582748,10.6436019 13.0001663,10.7142857 12.8174603,10.7142857 L10.1190476,10.7142857 C9.93634168,10.7142857 9.77823314,10.6436019 9.64471726,10.5022321 C9.51120138,10.3608624 9.44444444,10.1934533 9.44444444,10 L9.44444444,7.14285714 C9.44444444,6.94940379 9.51120138,6.78199475 9.64471726,6.640625 C9.77823314,6.49925525 9.93634168,6.42857143 10.1190476,6.42857143 L12.8174603,6.42857143 Z M16.1904762,7.85714286 L16.1904762,9.28571429 L13.8293651,9.28571429 L13.8293651,7.85714286 L16.1904762,7.85714286 Z M16.1904762,2.14285714 L16.1904762,3.57142857 L7.08333333,3.57142857 L7.08333333,2.14285714 L16.1904762,2.14285714 Z" id=""></path>
            </g>
        </g>
    </g>
</svg>