<?xml version="1.0" encoding="UTF-8"?>
<svg width="19px" height="19px" viewBox="0 0 19 19" version="1.1" xmlns="http://www.w3.org/2000/svg" xmlns:xlink="http://www.w3.org/1999/xlink">
    <!-- Generator: Sketch 51 (57462) - http://www.bohemiancoding.com/sketch -->
    <title>ic/settings/grey600</title>
    <desc>Created with Sketch.</desc>
    <defs></defs>
    <g id="JC-" stroke="none" stroke-width="1" fill="none" fill-rule="evenodd" opacity="0.7">
        <g id="Group-5" transform="translate(-30.000000, -752.000000)">
            <g id="ic/settings/grey600" transform="translate(29.000000, 751.000000)">
                <g id="ic_settings_24px">
                    <polygon id="Shape" points="0 0 20.9664 0 20.9664 20.9664 0 20.9664"></polygon>
                    <path d="M16.974048,11.339328 C17.008992,11.059776 17.0352,10.780224 17.0352,10.4832 C17.0352,10.186176 17.008992,9.906624 16.974048,9.627072 L18.817344,8.185632 C18.983328,8.054592 19.027008,7.81872 18.922176,7.626528 L17.174976,4.603872 C17.070144,4.41168 16.834272,4.341792 16.64208,4.41168 L14.466816,5.28528 C14.012544,4.93584 13.523328,4.647552 12.990432,4.429152 L12.658464,2.114112 C12.632256,1.904448 12.4488,1.7472 12.2304,1.7472 L8.736,1.7472 C8.5176,1.7472 8.334144,1.904448 8.307936,2.114112 L7.975968,4.429152 C7.443072,4.647552 6.953856,4.944576 6.499584,5.28528 L4.32432,4.41168 C4.123392,4.333056 3.896256,4.41168 3.791424,4.603872 L2.044224,7.626528 C1.930656,7.81872 1.983072,8.054592 2.149056,8.185632 L3.992352,9.627072 C3.957408,9.906624 3.9312,10.194912 3.9312,10.4832 C3.9312,10.771488 3.957408,11.059776 3.992352,11.339328 L2.149056,12.780768 C1.983072,12.911808 1.939392,13.14768 2.044224,13.339872 L3.791424,16.362528 C3.896256,16.55472 4.132128,16.624608 4.32432,16.55472 L6.499584,15.68112 C6.953856,16.03056 7.443072,16.318848 7.975968,16.537248 L8.307936,18.852288 C8.334144,19.061952 8.5176,19.2192 8.736,19.2192 L12.2304,19.2192 C12.4488,19.2192 12.632256,19.061952 12.658464,18.852288 L12.990432,16.537248 C13.523328,16.318848 14.012544,16.021824 14.466816,15.68112 L16.64208,16.55472 C16.843008,16.633344 17.070144,16.55472 17.174976,16.362528 L18.922176,13.339872 C19.027008,13.14768 18.983328,12.911808 18.817344,12.780768 L16.974048,11.339328 Z M10.4832,13.5408 C8.797152,13.5408 7.4256,12.169248 7.4256,10.4832 C7.4256,8.797152 8.797152,7.4256 10.4832,7.4256 C12.169248,7.4256 13.5408,8.797152 13.5408,10.4832 C13.5408,12.169248 12.169248,13.5408 10.4832,13.5408 Z" id="Shape" stroke="#000000" stroke-width="1.352" fill-rule="nonzero"></path>
                </g>
            </g>
        </g>
    </g>
</svg>