<?xml version="1.0" encoding="UTF-8"?>
<svg width="17px" height="17px" viewBox="0 0 17 17" version="1.1" xmlns="http://www.w3.org/2000/svg" xmlns:xlink="http://www.w3.org/1999/xlink">
    <!-- Generator: Sketch 51 (57462) - http://www.bohemiancoding.com/sketch -->
    <title>Icon 2 Copy 3</title>
    <desc>Created with Sketch.</desc>
    <defs></defs>
    <g id="Symbols" stroke="none" stroke-width="1" fill="none" fill-rule="evenodd">
        <g id="Categories/cart" transform="translate(-126.000000, -171.000000)" fill="#E6B122" stroke="#E6B122" stroke-width="0.5">
            <g id="Icon/-Cart" transform="translate(125.000000, 170.000000)">
                <path d="M17.428125,5.7875 C17.4697919,5.85000031 17.4958333,5.92291625 17.50625,6.00625 C17.5166667,6.08958375 17.5114584,6.16770797 17.490625,6.240625 L15.1,13.271875 C15.0687498,13.3656255 15.0088546,13.4437497 14.9203125,13.50625 C14.8317704,13.5687503 14.7354172,13.6 14.63125,13.6 L7.88125,13.6 C7.77708281,13.6 7.68072961,13.5661462 7.5921875,13.4984375 C7.50364539,13.4307288 7.44375016,13.3447922 7.4125,13.240625 L4.646875,3.084375 C4.57395797,2.83437375 4.49583375,2.68854187 4.4125,2.646875 C4.32916625,2.60520813 4.26666688,2.584375 4.225,2.584375 L2.084375,2.584375 C1.94895766,2.584375 1.83437547,2.53750047 1.740625,2.44375 C1.64687453,2.34999953 1.6,2.23541734 1.6,2.1 C1.6,1.95416594 1.64687453,1.83437547 1.740625,1.740625 C1.83437547,1.64687453 1.94895766,1.6 2.084375,1.6 L4.225,1.6 C4.38125078,1.6 4.61041516,1.66510352 4.9125,1.7953125 C5.21458484,1.92552148 5.44374922,2.26145562 5.6,2.803125 L6.4125,5.56875 L17.021875,5.56875 C17.094792,5.56875 17.167708,5.58958313 17.240625,5.63125 C17.313542,5.67291688 17.3760414,5.72499969 17.428125,5.7875 Z M14.2875,12.6 L16.303125,6.56875 L6.678125,6.56875 L8.271875,12.6 L14.2875,12.6 Z M13.303125,14.6 C13.6468767,14.6 13.9411446,14.7223946 14.1859375,14.9671875 C14.4307304,15.2119804 14.553125,15.5062483 14.553125,15.85 C14.553125,16.1937517 14.4307304,16.4880196 14.1859375,16.7328125 C13.9411446,16.9776054 13.6468767,17.1 13.303125,17.1 C12.9593733,17.1 12.6651054,16.9776054 12.4203125,16.7328125 C12.1755196,16.4880196 12.053125,16.1937517 12.053125,15.85 C12.053125,15.5062483 12.1755196,15.2119804 12.4203125,14.9671875 C12.6651054,14.7223946 12.9593733,14.6 13.303125,14.6 Z M8.803125,14.6 C9.14687672,14.6 9.44114461,14.7223946 9.6859375,14.9671875 C9.93073039,15.2119804 10.053125,15.5062483 10.053125,15.85 C10.053125,16.1937517 9.93073039,16.4880196 9.6859375,16.7328125 C9.44114461,16.9776054 9.14687672,17.1 8.803125,17.1 C8.45937328,17.1 8.16510539,16.9776054 7.9203125,16.7328125 C7.67551961,16.4880196 7.553125,16.1937517 7.553125,15.85 C7.553125,15.5062483 7.67551961,15.2119804 7.9203125,14.9671875 C8.16510539,14.7223946 8.45937328,14.6 8.803125,14.6 Z" id="shape"></path>
            </g>
        </g>
    </g>
</svg>