<?xml version="1.0" encoding="UTF-8"?>
<svg width="61px" height="61px" viewBox="0 0 61 61" version="1.1" xmlns="http://www.w3.org/2000/svg" xmlns:xlink="http://www.w3.org/1999/xlink">
    <!-- Generator: Sketch 51 (57462) - http://www.bohemiancoding.com/sketch -->
    <title>S ac icon </title>
    <desc>Created with Sketch.</desc>
    <defs></defs>
    <g id="JC-" stroke="none" stroke-width="1" fill="none" fill-rule="evenodd">
        <g id="OUR-STORE" transform="translate(-151.000000, -385.000000)">
            <rect fill="#FFFFFF" x="0" y="0" width="360" height="800"></rect>
            <g id="S-ac-icon-" transform="translate(152.000000, 386.000000)" fill-rule="nonzero">
                <circle id="Oval-9-Copy" stroke="#FFFFFF" fill="#1764A7" cx="29.5" cy="29.5" r="29.5"></circle>
                <g id="112516" transform="translate(14.000000, 21.000000)" fill="#FFFFFF">
                    <path d="M29.7362824,0.108542169 L2.18942745,0.108542169 C0.982211765,0.108542169 0,1.09870482 0,2.31581928 L0,10.4053735 C0,12.4290904 1.6332549,14.0755663 3.64072157,14.0755663 L28.2851137,14.0755663 C30.2925804,14.0755663 31.9258353,12.4290904 31.9258353,10.4053735 L31.9258353,2.31581928 C31.9257098,1.09870482 30.9436235,0.108542169 29.7362824,0.108542169 Z M4.74654118,1.87962651 L27.1791686,1.87962651 L27.1791686,3.9646988 C27.1791686,4.78445783 26.5175843,5.4515241 25.7044078,5.4515241 L6.22142745,5.4515241 C5.40825098,5.4515241 4.74666667,4.78458434 4.74666667,3.9646988 L4.74654118,1.87962651 Z M30.1687216,10.4053735 C30.1687216,11.4524639 29.3236706,12.3044819 28.2848627,12.3044819 L3.64059608,12.3044819 C2.60191373,12.3044819 1.75673725,11.4525904 1.75673725,10.4053735 L1.75673725,2.31581928 C1.75673725,2.07533133 1.9507451,1.87962651 2.18930196,1.87962651 L2.98955294,1.87962651 L2.98955294,3.9646988 C2.98955294,5.76108434 4.43934118,7.22260843 6.22117647,7.22260843 L25.7041569,7.22260843 C27.4861176,7.22260843 28.9357804,5.76108434 28.9357804,3.9646988 L28.9357804,1.87962651 L29.7360314,1.87962651 C29.9745882,1.87962651 30.1685961,2.07533133 30.1685961,2.31581928 L30.1685961,10.4053735 L30.1687216,10.4053735 Z" id="Shape"></path>
                    <path d="M28.0576,9.5193253 L3.8681098,9.5193253 C3.38296471,9.5193253 2.98967843,9.91579518 2.98967843,10.4048675 C2.98967843,10.8939398 3.38296471,11.2904096 3.8681098,11.2904096 L28.0576,11.2904096 C28.5427451,11.2904096 28.9360314,10.8939398 28.9360314,10.4048675 C28.9360314,9.91579518 28.5427451,9.5193253 28.0576,9.5193253 Z" id="Shape"></path>
                    <path d="M10.5646431,16.8705904 C10.5352784,16.8540181 10.5079216,16.8379518 10.4824471,16.8225181 C10.8960627,16.643259 11.1125333,16.1717711 10.969098,15.7325422 C10.8173804,15.268012 10.3209412,15.015253 9.86014118,15.1681988 C9.64191373,15.2405602 8.54839216,15.6515783 8.45364706,16.6345301 C8.38864314,17.3093133 8.80953725,17.9083193 9.70465882,18.4149759 C9.99416471,18.5788012 10.0633098,18.7017651 10.0649412,18.7233976 C10.0739765,18.846488 9.8355451,19.1707229 9.60539608,19.350741 C9.21825882,19.6455 9.14133333,20.2007349 9.4336,20.591006 C9.60627451,20.8216265 9.86917647,20.9430723 10.1353412,20.9430723 C10.3196863,20.9430723 10.5055373,20.884753 10.6639059,20.7641928 C10.7904,20.6679217 11.8972235,19.7894639 11.8176627,18.6039759 C11.7850353,18.1181928 11.5410824,17.4231687 10.5646431,16.8705904 Z" id="Shape"></path>
                    <path d="M16.3929098,16.8705904 C16.3635451,16.8540181 16.3361882,16.8379518 16.3107137,16.8225181 C16.7243294,16.643259 16.9408,16.1717711 16.7973647,15.7325422 C16.6456471,15.268012 16.1494588,15.015253 15.6884078,15.1681988 C15.4701804,15.2405602 14.3766588,15.6515783 14.2819137,16.6345301 C14.2169098,17.3093133 14.6378039,17.9083193 15.5329255,18.4149759 C15.8224314,18.5788012 15.8915765,18.7017651 15.8932078,18.7233976 C15.9022431,18.846488 15.6638118,19.1707229 15.4336627,19.350741 C15.0465255,19.6455 14.9696,20.2007349 15.2618667,20.591006 C15.4345412,20.8216265 15.6974431,20.9430723 15.9636078,20.9430723 C16.1479529,20.9430723 16.3338039,20.884753 16.4921725,20.7641928 C16.6186667,20.6679217 17.7254902,19.7894639 17.6459294,18.6039759 C17.613302,18.1181928 17.3694745,17.4231687 16.3929098,16.8705904 Z" id="Shape"></path>
                    <path d="M22.2211765,16.8705904 C22.1918118,16.8540181 22.1644549,16.8379518 22.1389804,16.8225181 C22.5525961,16.643259 22.7690667,16.1717711 22.6256314,15.7325422 C22.4739137,15.268012 21.9776,15.015253 21.5166745,15.1681988 C21.2984471,15.2405602 20.2049255,15.6515783 20.1101804,16.6345301 C20.0451765,17.3093133 20.4660706,17.9083193 21.3611922,18.4149759 C21.650698,18.5788012 21.7198431,18.7017651 21.7214745,18.7233976 C21.7305098,18.846488 21.4920784,19.1707229 21.2619294,19.350741 C20.8747922,19.6455 20.7978667,20.2007349 21.0901333,20.591006 C21.2628078,20.8216265 21.5257098,20.9430723 21.7918745,20.9430723 C21.9762196,20.9430723 22.1620706,20.884753 22.3204392,20.7641928 C22.4469333,20.6679217 23.5537569,19.7894639 23.4741961,18.6039759 C23.4415686,18.1181928 23.1977412,17.4231687 22.2211765,16.8705904 Z" id="Shape"></path>
                </g>
            </g>
        </g>
    </g>
</svg>