<?xml version="1.0" encoding="UTF-8"?>
<svg width="23px" height="22px" viewBox="0 0 23 22" version="1.1" xmlns="http://www.w3.org/2000/svg" xmlns:xlink="http://www.w3.org/1999/xlink">
    <!-- Generator: Sketch 51 (57462) - http://www.bohemiancoding.com/sketch -->
    <title>Shape</title>
    <desc>Created with Sketch.</desc>
    <defs></defs>
    <g id="JC-" stroke="none" stroke-width="1" fill="none" fill-rule="evenodd">
        <path d="M19.3760094,6.2802136 C20.124282,5.54085301 20.124282,4.34364886 19.3760094,3.60504504 C18.6285027,2.86568445 17.416102,2.86568445 16.6685953,3.60504504 C15.9203227,4.34440563 15.9203227,5.54160977 16.6685953,6.2802136 C17.416102,7.01957419 18.6285027,7.01957419 19.3760094,6.2802136 Z M14.9583673,11.351304 L17.6405072,11.351304 C17.9338423,11.516279 18.3083615,11.4890354 18.5588069,11.2438432 L21.2692846,8.59137761 C21.3014519,8.55959343 21.3160037,8.51948482 21.341278,8.48467357 C21.4056126,8.42791611 21.478372,8.38629396 21.5404089,8.32575267 C23.4865304,6.42097211 23.4865304,3.3326092 21.5404089,1.42858542 C19.5942875,-0.476195139 16.4388289,-0.476195139 14.4927074,1.42858542 C12.546586,3.33336597 12.546586,6.42172888 14.4927074,8.32575267 C14.5547443,8.38629396 14.6275037,8.42791611 14.6918383,8.48467357 C14.7171126,8.51948482 14.7316645,8.55959343 14.7638318,8.59137761 L16.062012,9.86198808 L14.9101164,9.86198808 L14.9101164,9.88998843 C13.0290954,9.91647524 11.5111054,11.4262238 11.5111054,13.2908958 C11.5111054,15.1714598 13.0543697,16.6494242 14.9576014,16.6494242 L18.0211535,16.6494242 C19.0788448,16.6494242 19.9358735,17.5197054 19.9358735,18.5647995 C19.9358735,19.6098936 19.0788448,20.456715 18.0211535,20.456715 L6.88743944,20.456715 L8.23616823,19.1369148 C8.26833553,19.1051306 8.2828874,19.0657787 8.3081617,19.0302107 C8.3724963,18.9734533 8.44525566,18.9318311 8.50729259,18.8712898 C10.453414,16.9665093 10.453414,13.8781464 8.50729259,11.9741226 C6.56117114,10.069342 3.40571253,10.069342 1.45959108,11.9741226 C-0.486530361,13.8789031 -0.486530361,16.967266 1.45959108,18.8712898 C1.52162801,18.9318311 1.59438737,18.9734533 1.65872197,19.0302107 C1.68399627,19.0657787 1.69854814,19.1051306 1.73071544,19.1369148 L4.44119312,21.7893803 C4.64415344,21.9884098 4.92982967,22.0406267 5.18793393,21.9702475 L18.0701703,21.9702475 L18.0701703,21.9657069 C19.9511913,21.93922 21.4691813,20.4294715 21.4691813,18.5647995 C21.4691813,16.7122358 19.9703385,15.2123252 18.1061671,15.167676 L18.1061671,15.1593516 L14.8633972,15.1737301 C13.8516591,15.1230268 13.0444132,14.303449 13.0444132,13.2916525 C13.0436473,12.2458016 13.900676,11.351304 14.9583673,11.351304 Z M15.5848637,7.2723341 L15.5856296,7.27157733 C15.5833319,7.26855027 15.5802684,7.26703674 15.5772048,7.26476644 C14.2300078,5.9464797 14.2300078,3.80861515 15.5772048,2.48957164 C16.9244019,1.1712849 19.1087145,1.1712849 20.4566774,2.48957164 C21.8038744,3.80785838 21.8038744,5.94572293 20.4566774,7.26476644 C20.4482526,7.27309087 20.4382961,7.27763146 20.4291054,7.28595589 L20.4314031,7.28898296 L18.0165582,9.65160707 L15.5848637,7.2723341 Z M4.98344183,20.197901 L2.55174739,17.8171145 L2.55174739,17.8163577 C2.54944973,17.8140874 2.54638617,17.8118171 2.54332262,17.8095468 C1.19612561,16.4912601 1.19612561,14.3533955 2.54332262,13.034352 C3.89051964,11.7160653 6.07483225,11.7160653 7.42279516,13.034352 C8.76999217,14.3526388 8.76999217,16.4905033 7.42279516,17.8095468 C7.41437039,17.8178713 7.40441385,17.8231686 7.39522319,17.831493 L7.39752085,17.8337633 L4.98344183,20.197901 Z M3.64849903,14.199772 C2.90022644,14.9391326 2.90022644,16.1363367 3.64849903,16.8749406 C4.39600573,17.6143011 5.60840645,17.6143011 6.35591315,16.8749406 C7.10418574,16.13558 7.10418574,14.9383758 6.35591315,14.199772 C5.60840645,13.4611682 4.39600573,13.4611682 3.64849903,14.199772 Z" id="Shape" fill="#3277D8" fill-rule="nonzero"></path>
    </g>
</svg>