<?xml version="1.0" encoding="UTF-8"?>
<svg width="61px" height="61px" viewBox="0 0 61 61" version="1.1" xmlns="http://www.w3.org/2000/svg" xmlns:xlink="http://www.w3.org/1999/xlink">
    <!-- Generator: Sketch 51 (57462) - http://www.bohemiancoding.com/sketch -->
    <title>Win ac icon</title>
    <desc>Created with Sketch.</desc>
    <defs></defs>
    <g id="JC-" stroke="none" stroke-width="1" fill="none" fill-rule="evenodd">
        <g id="OUR-STORE" transform="translate(-155.000000, -217.000000)">
            <rect fill="#FFFFFF" x="0" y="0" width="360" height="800"></rect>
            <g id="Win-ac-icon" transform="translate(156.000000, 218.000000)" fill-rule="nonzero">
                <circle id="Oval-9" stroke="#FFFFFF" fill="#1764A7" cx="29.5" cy="29.5" r="29.5"></circle>
                <g id="259597" transform="translate(13.000000, 19.000000)" fill="#FFFFFF">
                    <path d="M32.0619336,0 L1.93806641,0 C0.869457031,0 0,0.883509202 0,1.96960736 L0,19.9039939 C0,20.9900245 0.869457031,21.8736012 1.93806641,21.8736012 L32.0619336,21.8736012 C33.130543,21.8736012 34,20.9900245 34,19.9039939 L34,1.96960736 C34,0.883509202 33.130543,0 32.0619336,0 Z M32.0619336,20.4969816 L1.93806641,20.4969816 C1.61632813,20.4969816 1.35455469,20.2309571 1.35455469,19.9039264 L1.35455469,1.96960736 C1.35455469,1.64264417 1.61632813,1.37655215 1.93806641,1.37655215 L32.0619336,1.37655215 C32.3836719,1.37655215 32.6454453,1.64257669 32.6454453,1.96960736 L32.6454453,19.9039939 C32.6454453,20.2308896 32.3836719,20.4969816 32.0619336,20.4969816 Z" id="Shape"></path>
                    <path d="M10.9370036,3.14285714 C6.6422458,3.14285714 3.14814815,6.69369763 3.14814815,11.0582007 C3.14814815,15.4227038 6.6422458,18.9735443 10.9370036,18.9735443 C15.2317614,18.9735443 18.7258591,15.4227038 18.7258591,11.0582007 C18.7258591,6.69369763 15.2317614,3.14285714 10.9370036,3.14285714 Z M10.9370036,17.5969246 C7.3891169,17.5969246 4.50276924,14.6636363 4.50276924,11.0582007 C4.50276924,7.45276512 7.3891833,4.51947677 10.9370036,4.51947677 C14.4848239,4.51947677 17.371238,7.45276512 17.371238,11.0582007 C17.3713044,14.6637038 14.4848903,17.5969246 10.9370036,17.5969246 Z" id="Shape"></path>
                    <path d="M16.4770243,11.5634728 C16.1477157,11.0369574 15.5649344,10.7618899 14.956786,10.8447611 C14.208786,10.9471353 13.4382743,10.8998286 12.7062118,10.7096568 C12.6236688,10.3265464 12.4402547,9.98149731 12.1855868,9.70467522 C12.253454,9.53441142 12.3494774,9.37528258 12.4682782,9.23741142 C12.9428836,8.68673657 13.2041258,7.98023964 13.2041258,7.24830099 C13.2041258,6.10477338 12.3237118,5.16558933 11.1997196,5.11011694 L9.58664536,5.03055252 C8.97278598,4.99998197 8.41610239,5.32505559 8.13208286,5.87815988 C7.84812973,6.43126418 7.90470786,7.08161387 8.27977036,7.57546663 C8.73027036,8.16858933 9.06150473,8.82892676 9.26756333,9.54223964 C8.95518833,9.81548504 8.7222352,10.1795648 8.60868051,10.5939881 C8.45694223,10.6073501 8.30321176,10.5992519 8.15419614,10.5692212 C7.44763364,10.4270311 6.71503989,10.5501231 6.09121958,10.9161599 C5.11670786,11.4878899 4.75652036,12.7323746 5.27130161,13.7492335 L6.01000473,15.2087243 C6.28027817,15.7425955 6.80475473,16.0664544 7.39045786,16.0664544 C7.41343442,16.0664544 7.4365438,16.065982 7.45958676,16.0650372 C8.07291489,16.0383807 8.59878598,15.663436 8.83220395,15.0863746 C9.11443051,14.3882458 9.51539145,13.762393 10.0257899,13.2215034 C10.2211571,13.2823746 10.428411,13.3152396 10.6432352,13.3152396 C10.8374071,13.3152396 11.0253368,13.2879084 11.2041024,13.2378347 C11.308161,13.377663 11.3908368,13.5343623 11.4462196,13.6999697 C11.6783094,14.3929697 12.149661,14.9761722 12.7733485,15.342074 C13.1052469,15.5367672 13.4680243,15.6298286 13.8262196,15.6298286 C14.5197,15.6298286 15.1959813,15.2811353 15.5976063,14.6471844 L16.4719774,13.2673255 C16.8044735,12.7428347 16.8063329,12.0899206 16.4770243,11.5634728 Z M7.57931723,14.563301 C7.53894223,14.6632458 7.46058286,14.6872028 7.40201255,14.6897672 C7.34344223,14.6921292 7.26328989,14.675258 7.21468051,14.5791599 L6.47597739,13.1197366 C6.2922313,12.7567366 6.4208602,12.312485 6.76862973,12.1084114 C7.10803208,11.9092642 7.5067352,11.8423194 7.89096176,11.9195893 C8.15087583,11.9718899 8.41862583,11.9875464 8.68365317,11.9681108 C8.74567661,12.1245403 8.8252977,12.2718593 8.92005942,12.4076384 C8.35255161,13.0405771 7.90271567,13.7634053 7.57931723,14.563301 Z M10.643368,11.938755 C10.2256727,11.938755 9.88580551,11.5933685 9.88580551,11.1688899 C9.88580551,10.7444114 10.2256727,10.3990924 10.643368,10.3990924 C11.0610633,10.3990924 11.4008641,10.7444114 11.4008641,11.1688899 C11.4008641,11.5933685 11.0610633,11.938755 10.643368,11.938755 Z M11.449075,8.33048504 C11.2631375,8.54630099 11.1080125,8.79066295 10.9888797,9.05176111 C10.8763875,9.03286541 10.7610399,9.02260774 10.6433016,9.02260774 C10.6049188,9.02260774 10.566868,9.02375498 10.5288836,9.025847 C10.2735516,8.19720283 9.8792313,7.42848504 9.35209848,6.73447277 C9.28715317,6.6489697 9.30581333,6.56805559 9.33297348,6.51514761 C9.36013364,6.46223964 9.41305942,6.40069363 9.52083676,6.40562001 L11.133911,6.48518442 C11.5351375,6.50502492 11.8493719,6.84022123 11.8493719,7.24836847 C11.8495047,7.64652798 11.7072625,8.03085314 11.449075,8.33048504 Z M15.3331766,12.5220924 L14.4587391,13.9020188 C14.2413915,14.2451783 13.7985282,14.3540985 13.4506258,14.1500924 C13.1112235,13.9509452 12.854829,13.6336998 12.7285907,13.256663 C12.6342274,12.974982 12.4968329,12.7072703 12.3253719,12.4650679 C12.4128954,12.3480495 12.4888641,12.2217857 12.551618,12.0878286 C13.3972352,12.2838715 14.2794422,12.3265218 15.1374774,12.209166 C15.2424657,12.1945893 15.3022977,12.2514789 15.3338407,12.3018899 C15.3653172,12.3522335 15.3907508,12.431258 15.3331766,12.5220924 Z" id="Shape"></path>
                    <path d="M29.8333669,3.14285714 L20.8254255,3.14285714 C20.4514255,3.14285714 20.1481481,3.45099211 20.1481481,3.83113322 C20.1481481,4.21127432 20.4514255,4.51940929 20.8254255,4.51940929 L29.8333669,4.51940929 C30.2073669,4.51940929 30.5106442,4.21127432 30.5106442,3.83113322 C30.5106442,3.45099211 30.2073669,3.14285714 29.8333669,3.14285714 Z" id="Shape"></path>
                    <path d="M29.8333669,6.91428571 L20.8254255,6.91428571 C20.4514255,6.91428571 20.1481481,7.22242068 20.1481481,7.60256179 C20.1481481,7.98270289 20.4514255,8.29083786 20.8254255,8.29083786 L29.8333669,8.29083786 C30.2073669,8.29083786 30.5106442,7.98270289 30.5106442,7.60256179 C30.5106442,7.22242068 30.2073669,6.91428571 29.8333669,6.91428571 Z" id="Shape"></path>
                    <path d="M29.8333669,10.6857143 L20.8254255,10.6857143 C20.4514255,10.6857143 20.1481481,10.9938493 20.1481481,11.3739904 C20.1481481,11.7541315 20.4514255,12.0622664 20.8254255,12.0622664 L29.8333669,12.0622664 C30.2073669,12.0622664 30.5106442,11.7541315 30.5106442,11.3739904 C30.5107106,10.9938493 30.2073669,10.6857143 29.8333669,10.6857143 Z" id="Shape"></path>
                    <path d="M29.8333669,13.8285714 L20.8254255,13.8285714 C20.4514255,13.8285714 20.1481481,14.1367064 20.1481481,14.5168475 C20.1481481,14.8969886 20.4514255,15.2051236 20.8254255,15.2051236 L29.8333669,15.2051236 C30.2073669,15.2051236 30.5106442,14.8969886 30.5106442,14.5168475 C30.5107106,14.1367064 30.2073669,13.8285714 29.8333669,13.8285714 Z" id="Shape"></path>
                    <path d="M27.1242575,17.6 L20.8254255,17.6 C20.4514255,17.6 20.1481481,17.908135 20.1481481,18.2882761 C20.1481481,18.6684172 20.4514255,18.9765521 20.8254255,18.9765521 L27.1242575,18.9765521 C27.4982575,18.9765521 27.8015349,18.6684172 27.8015349,18.2882761 C27.8015349,17.908135 27.4982575,17.6 27.1242575,17.6 Z" id="Shape"></path>
                    <path d="M29.9789122,17.6 L29.6402403,17.6 C29.2662403,17.6 28.962963,17.908135 28.962963,18.2882761 C28.962963,18.6684172 29.2662403,18.9765521 29.6402403,18.9765521 L29.9789122,18.9765521 C30.3529122,18.9765521 30.6561895,18.6684172 30.6561895,18.2882761 C30.6562559,17.908135 30.3529122,17.6 29.9789122,17.6 Z" id="Shape"></path>
                </g>
            </g>
        </g>
    </g>
</svg>