<?xml version="1.0" encoding="utf-8"?>
<!-- Generator: Adobe Illustrator 22.0.0, SVG Export Plug-In . SVG Version: 6.00 Build 0)  -->
<svg version="1.1" xmlns="http://www.w3.org/2000/svg" xmlns:xlink="http://www.w3.org/1999/xlink" x="0px" y="0px"
	 viewBox="0 0 354.9 75.3" style="enable-background:new 0 0 354.9 75.3;" xml:space="preserve">
<style type="text/css">
	.st0{fill:#FFFFFF;}
</style>
<g id="Layer_1">
	<g>
		<g>
			<g>
				<path class="st0" d="M236.7,48.3c0,3.9-2.2,6.2-8.4,6.2v0h-0.2c-5.6,0-6.8-1.6-7.3-4.8c0.3-1.1,0.5-2.3,0.5-3.7
					c0-8.1-5.6-13-14.8-13v0c-9.2,0-14.8,4.9-14.8,13c0,1.3,0.2,2.5,0.5,3.7c-0.5,3.3-1.7,4.8-7.3,4.8h-1.8v4.3h2
					c5.1-0.1,7.4-0.9,10.5-3.4c2.5,2.2,6.2,3.4,10.9,3.4v0c4.7,0,8.3-1.1,10.9-3.4c3.1,2.5,5.4,3.3,10.5,3.4h2v0
					c8.7-0.4,13.4-4.2,13.4-10.2V25h-6.6V48.3z M206.6,54.4L206.6,54.4c-5.3,0-8.1-3-8.1-8.6c0-6.1,2.7-9,8.1-9v0c5.4,0,8.1,3,8.1,9
					C214.7,51.5,211.9,54.4,206.6,54.4z"/>
				<path class="st0" d="M260.2,58.7L260.2,58.7l26.6,0c7.4,0,12-2.8,12-8.3v-16h-6.6v13.8c0,5.1-1.4,6.2-5.6,6.2h-2.3V35.4h-6.6
					v19.1h-7.8V34.7h-6.4v19.7h-1.5l0,0c-6.1,0-9.3-2.3-9.3-6.2l0.1-23.3h-6.6v23.5C246.1,54.5,251.5,58.2,260.2,58.7z"/>
				<path class="st0" d="M303.3,55.1c0,3.8-1.5,6.2-7.5,6.2h-49.7v5.5h48.7c10.8,0,15.2-5.3,15.2-11.4V24.9h-6.7V55.1z"/>
				<rect x="313.8" y="25" class="st0" width="6.6" height="33.7"/>
				<path class="st0" d="M320.1,21.7c1.8,0,3-0.3,4.6-1.2l-2.1-1.9c-1.1,0.5-2.2,0.8-3.2,0.8c-1.8,0-3.8-0.8-5.6-0.8
					c-1.5,0-2.5,0.3-3.7,1l2.2,1.7c0.9-0.3,1.5-0.4,2.2-0.4C316.3,21,318,21.7,320.1,21.7z"/>
			</g>
			<path id="XMLID_9_" class="st0" d="M185.2,61.3h1.3l1.9,5.5h-1.2l-0.4-1.1h-2l-0.4,1.1h-1.2L185.2,61.3z M185.1,64.7h1.4
				l-0.7-2.2L185.1,64.7z"/>
			<polygon id="XMLID_8_" class="st0" points="192.1,61.3 193.2,61.3 193.2,65.8 195.9,65.8 195.9,66.7 192.1,66.7 			"/>
			<path id="XMLID_7_" class="st0" d="M205.5,65.1c0,0.3,0.1,0.4,0.2,0.6c0.2,0.2,0.5,0.3,1,0.3c0.3,0,0.5,0,0.7-0.1
				c0.3-0.1,0.5-0.3,0.5-0.6c0-0.2-0.1-0.3-0.2-0.4c-0.2-0.1-0.4-0.2-0.8-0.3l-0.6-0.1c-0.6-0.1-1-0.3-1.2-0.4
				c-0.4-0.3-0.6-0.6-0.6-1.2c0-0.5,0.2-0.9,0.5-1.2c0.4-0.3,0.9-0.5,1.6-0.5c0.6,0,1.1,0.2,1.5,0.5c0.4,0.3,0.6,0.8,0.6,1.3h-1.1
				c0-0.3-0.2-0.6-0.4-0.7c-0.2-0.1-0.4-0.1-0.7-0.1c-0.3,0-0.5,0.1-0.7,0.2c-0.2,0.1-0.3,0.3-0.3,0.5c0,0.2,0.1,0.3,0.3,0.4
				c0.1,0.1,0.4,0.1,0.7,0.2l1,0.2c0.4,0.1,0.7,0.2,0.9,0.4c0.3,0.3,0.5,0.6,0.5,1.1c0,0.5-0.2,0.9-0.6,1.2
				c-0.4,0.3-0.9,0.5-1.6,0.5c-0.7,0-1.3-0.2-1.7-0.5c-0.4-0.3-0.6-0.8-0.6-1.3H205.5z"/>
			<path id="XMLID_4_" class="st0" d="M214.3,61.3h1.3l1.9,5.5h-1.2l-0.4-1.1h-2l-0.4,1.1h-1.2L214.3,61.3z M214.2,64.7h1.4
				l-0.7-2.2L214.2,64.7z"/>
			<polygon id="XMLID_3_" class="st0" points="221.2,61.3 222.3,61.3 222.3,65.8 225.1,65.8 225.1,66.7 221.2,66.7 			"/>
			<polygon id="XMLID_2_" class="st0" points="232.9,62.2 230,62.2 230,63.4 232.6,63.4 232.6,64.3 230,64.3 230,65.8 233,65.8 
				233,66.7 228.9,66.7 228.9,61.3 232.9,61.3 			"/>
			<path id="XMLID_1_" class="st0" d="M240.5,61.3h1.6v5.5h-1.1V63c0-0.1,0-0.3,0-0.4c0-0.2,0-0.3,0-0.4l-1,4.6H239l-1-4.6
				c0,0.1,0,0.3,0,0.4s0,0.3,0,0.4v3.7h-1.1v-5.5h1.7l1,4.3L240.5,61.3z"/>
		</g>
		<g id="XMLID_1582_">
			<g id="XMLID_1584_">
				<g id="XMLID_1586_">
					<rect x="168" y="10.9" class="st0" width="1.2" height="57.3"/>
				</g>
			</g>
		</g>
		<g>
			<path class="st0" d="M39.5,67.3c-4.8,0-8.1-3.4-8.1-8.2c0-4.7,2.9-8.2,7.8-8.2c1.5,0,3.2,0.5,4.6,1.1l-1,2.4
				c-1.2-0.5-2.4-0.9-3.7-0.9c-3.1,0-4.6,2.6-4.6,5.4c0,3.4,1.8,5.9,5.4,5.9c1.1,0,2.2-0.3,3.1-0.7l0.7,2.2
				C42.4,66.9,40.9,67.3,39.5,67.3"/>
			<path class="st0" d="M50,67.3c-3.6,0-5.8-2.6-5.8-6.1c0-3.5,2.3-6.1,5.8-6.1c3.6,0,5.8,2.6,5.8,6.1C55.8,64.7,53.5,67.3,50,67.3
				 M50,57.6c-2.1,0-2.7,1.9-2.7,3.7c0,1.8,0.7,3.7,2.7,3.7c2.1,0,2.7-1.9,2.7-3.7C52.7,59.5,52,57.6,50,57.6"/>
			<path class="st0" d="M64.9,67v-7.3c0-1.4-0.9-2.1-2.3-2.1c-0.8,0-1.6,0.2-2.3,0.5c0,0,0.1,0.3,0,0.5l0,8.4h-2.8v-9.1
				c0-0.6-0.2-1.6-0.2-1.6c1.6-0.6,3.6-1.2,5.3-1.2c2.8,0,5.1,0.9,5.1,4.1V67H64.9z"/>
			<path class="st0" d="M74.1,67.4c-2.1,0-3.6-1-3.6-3.2v-6.4l-1.3-0.1v-2.2l1.3-0.1v-3.2h2.8v3.2h3.3v2.4h-3.3V64
				c0,0.7,0.4,1,1.1,1c0.7,0,1.4-0.2,2.1-0.5l0.8,2.3C76.2,67.1,75.2,67.4,74.1,67.4"/>
			<path class="st0" d="M84.9,57.8c-0.4-0.1-1-0.2-1.5-0.2c-0.7,0-1.4,0.1-2.1,0.3c0,0,0,0.2,0,0.2V67h-2.8v-8.9
				c0-0.6-0.2-1.7-0.2-1.7c1.7-0.7,3.5-1.3,5.3-1.3c0.7,0,1.5,0.1,2.1,0.3L84.9,57.8z"/>
			<path class="st0" d="M91.5,67.3c-3.6,0-5.8-2.6-5.8-6.1c0-3.5,2.3-6.1,5.8-6.1c3.6,0,5.8,2.6,5.8,6.1
				C97.3,64.7,95,67.3,91.5,67.3 M91.5,57.6c-2.1,0-2.7,1.9-2.7,3.7c0,1.8,0.7,3.7,2.7,3.7c2.1,0,2.7-1.9,2.7-3.7
				C94.2,59.5,93.5,57.6,91.5,57.6"/>
			<polygon class="st0" points="101.8,50 99,50 99,61.9 99,67 101.8,67 			"/>
			<path class="st0" d="M107.2,67.3c-1.3,0-2.7-0.3-3.8-0.8l0.8-2.2c0.8,0.4,1.9,0.7,2.8,0.7c0.9,0,1.8-0.3,1.8-1.3
				c0-2.1-5.1-1.4-5.1-5.3c0-2.4,2.5-3.4,4.3-3.4c1.2,0,2.5,0.3,3.4,0.7l-0.8,2.2c-0.8-0.3-1.8-0.5-2.6-0.5c-0.7,0-1.4,0.2-1.4,1
				c0,2,5.3,1.1,5.3,5.3C111.8,66.4,109.3,67.3,107.2,67.3"/>
			<path class="st0" d="M19.3,47.6c-0.7,0.2-1.7,0.5-2.5,0.7l-0.5-2.5c0.6-0.1,1.3-0.2,1.7-0.4c1.6-0.6,1.7-1.7,1.7-3.6V29.9h2.9
				v11.4C22.6,44.4,22.1,46.5,19.3,47.6"/>
			<path class="st0" d="M30.2,45.9c-3.6,0-5.8-2.6-5.8-6.1c0-3.5,2.3-6.1,5.8-6.1c3.6,0,5.8,2.6,5.8,6.1
				C36,43.4,33.7,45.9,30.2,45.9 M30.2,36.2c-2.1,0-2.7,1.9-2.7,3.7c0,1.8,0.7,3.6,2.7,3.6c2.1,0,2.7-1.9,2.7-3.6
				C32.9,38.1,32.2,36.2,30.2,36.2"/>
			<path class="st0" d="M45.2,45.7v-7.3c0-1.3-0.8-2.1-1.9-2.1c-0.9,0-1.9,0.4-2.7,0.9v8.6h-2.8l0-17.1h2.8v6
				c1.1-0.5,2.3-0.8,3.4-0.8c2.6,0,4,1.5,4,4.1v7.8H45.2z"/>
			<path class="st0" d="M57.8,45.7v-7.3c0-1.4-0.9-2.1-2.3-2.1c-0.8,0-1.6,0.2-2.4,0.5c0,0,0.1,0.3,0.1,0.5v8.4h-2.8v-9.1
				c0-0.6-0.2-1.6-0.2-1.6c1.6-0.6,3.6-1.2,5.3-1.2c2.8,0,5.1,0.9,5.1,4.1v7.7H57.8z"/>
			<path class="st0" d="M66,45.9c-1.3,0-2.7-0.3-3.8-0.8L63,43c0.8,0.3,1.9,0.7,2.8,0.7c0.9,0,1.8-0.3,1.8-1.3
				c0-2.1-5.1-1.4-5.1-5.3c0-2.4,2.5-3.3,4.3-3.3c1.2,0,2.5,0.3,3.3,0.7l-0.8,2.2c-0.7-0.3-1.8-0.5-2.6-0.5c-0.7,0-1.4,0.2-1.4,1
				c0,2,5.3,1.1,5.3,5.3C70.7,45,68.2,45.9,66,45.9"/>
			<path class="st0" d="M77.7,45.9c-3.6,0-5.8-2.6-5.8-6.1c0-3.5,2.3-6.1,5.8-6.1c3.6,0,5.8,2.6,5.8,6.1
				C83.6,43.4,81.3,45.9,77.7,45.9 M77.7,36.2c-2.1,0-2.7,1.9-2.7,3.7c0,1.8,0.7,3.6,2.7,3.6c2.1,0,2.7-1.9,2.7-3.6
				C80.5,38.1,79.8,36.2,77.7,36.2"/>
			<path class="st0" d="M92.8,45.7v-7.3c0-1.4-0.9-2.1-2.3-2.1c-0.8,0-1.6,0.2-2.3,0.5c0,0,0,0.3,0,0.5v8.4h-2.8v-9.1
				c0-0.6-0.2-1.6-0.2-1.6c1.6-0.6,3.5-1.2,5.3-1.2c2.8,0,5.1,0.9,5.1,4.1v7.7H92.8z"/>
			<path class="st0" d="M147.7,13.6c-0.3-0.3-0.6-0.6-0.9-0.9c-3.4,1.6-6.2,3.6-8.4,6c0.3,1.9,0.5,3.8,0.6,5.7
				c0.3,6.8-0.7,12.4-2.7,17c1.4,2.5,3.5,4.7,6.1,6.5c0.7-0.4,1.5-0.8,2.1-1.3c-4-4.6-5.9-10.3-5.5-16.4
				C139.4,23.6,142.6,17.8,147.7,13.6"/>
			<path class="st0" d="M142.7,9.7c-0.4-0.2-0.8-0.4-1.2-0.6c-1.6,0.8-3.2,1.6-4.6,2.6c0.3,1,0.6,2,0.8,3
				C139.3,13,141,11.3,142.7,9.7"/>
			<path class="st0" d="M136.4,50c0.9-0.2,1.8-0.4,2.7-0.7c-1.4-1.6-2.8-3.4-4.1-5.2c-0.6,1.1-1.3,2.1-2,3.1
				C134,48.2,135.2,49.1,136.4,50"/>
			<path class="st0" d="M153.3,23.8c-2.2,1.9-3.7,4.3-4.2,7.2c-0.5,3,0.2,6,1.9,8.7c1.9-3.2,2.9-6.9,2.9-10.9
				C153.9,27,153.7,25.4,153.3,23.8"/>
			<path class="st0" d="M146.7,30.5c0.4-4.2,2-8.5,4.8-11.8c-0.2-0.4-0.4-0.8-0.7-1.2c-5.4,2.9-8.8,7.6-9.3,13.3
				c-0.4,5,1.9,10.1,5.8,13.7c0.6-0.6,1.2-1.2,1.7-1.8C147,39,146.2,35,146.7,30.5"/>
			<path class="st0" d="M117.1,13.1c-3.8,3.6-6.2,8.6-6.6,14.1C114.2,23.8,116.4,18.2,117.1,13.1"/>
			<path class="st0" d="M121.4,9.9c-0.3,0.2-0.7,0.4-1,0.6c-2.1,9.8-5.5,16.2-9.7,21.2c0.2,1.1,0.4,2.2,0.7,3.2
				C120.3,29.5,122.1,17.3,121.4,9.9"/>
			<path class="st0" d="M139.1,24.4c-0.3-6.2-1.6-12-3.6-17.1c-0.4-0.1-0.8-0.1-1.3-0.1c1.9,16.4,0.1,32.3-9.6,41.9
				c1.7,0.6,3.6,1.1,5.5,1.3C136,45.1,139.6,36.5,139.1,24.4"/>
			<path class="st0" d="M130.6,7.1c-0.4,0-0.8,0.1-1.2,0.1c0.4,10.7-1.4,28.5-12,37.4c1,0.9,2,1.7,3.2,2.5
				C134.3,37.7,134.2,19.5,130.6,7.1"/>
			<path class="st0" d="M125.8,8c-0.4,0.1-0.7,0.2-1.1,0.4c-0.6,11-3.6,22.8-11.9,30.3c0.5,1.1,1.2,2.1,1.9,3
				C126,34.8,128.3,18.8,125.8,8"/>
		</g>
	</g>
</g>
<g id="Isolation_Mode">
</g>
</svg>
