<?xml version="1.0" encoding="utf-8"?>
<!-- Generator: Adobe Illustrator 22.0.0, SVG Export Plug-In . SVG Version: 6.00 Build 0)  -->
<svg version="1.1" xmlns="http://www.w3.org/2000/svg" xmlns:xlink="http://www.w3.org/1999/xlink" x="0px" y="0px"
	 viewBox="0 0 40 50" style="enable-background:new 0 0 40 50;" xml:space="preserve">
<style type="text/css">
	.st0{fill-rule:evenodd;clip-rule:evenodd;fill:none;stroke:#FFFFFF;stroke-width:0.5358;stroke-miterlimit:10;}
	.st1{fill:none;stroke:#FFFFFF;stroke-width:0.8037;stroke-miterlimit:10;}
	.st2{fill:none;stroke:#FFFFFF;stroke-width:0.8467;stroke-miterlimit:10;}
	.st3{display:none;}
	.st4{display:inline;fill-rule:evenodd;clip-rule:evenodd;fill:#52A271;}
	.st5{display:inline;fill-rule:evenodd;clip-rule:evenodd;fill:#356C50;}
	.st6{display:inline;fill:#FFFFFF;}
	.st7{display:inline;fill-rule:evenodd;clip-rule:evenodd;fill:#FFFFFF;}
</style>
<g id="Layer_1">
</g>
<g id="icons">
</g>
<g id="Layer_5">
	<path class="st2" d="M35.5,5.9h-2.7l1.3,3.5c0.3,0.9,0.2,1.9-0.3,2.6c-0.5,0.7-1.4,1.2-2.4,1.2H8.6c-1,0-1.9-0.4-2.4-1.2
		c-0.5-0.7-0.6-1.7-0.3-2.6l1.3-3.5H4.5C3.7,5.9,3,6.6,3,7.4V48c0,0.8,0.7,1.5,1.5,1.5h30.9c0.8,0,1.5-0.7,1.5-1.5V7.4
		C37,6.6,36.3,5.9,35.5,5.9z M7.5,16.7h24.9v2.7H7.5V16.7z M7.5,21.6h19.7v2.7H7.5V21.6z M7.5,26.5h24.9v2.7H7.5V26.5z M7.5,31.3
		h19.7V34H7.5V31.3z M25.7,45.9l-4.6-4.9l0.8-1.2l3.6,2.3l5.9-5.9l1.4,0.8L25.7,45.9z M8.6,11.4h22.7c0.4,0,0.7-0.2,0.9-0.4
		c0.2-0.3,0.2-0.6,0.1-1l-1.3-3.5C30.8,5.7,29.9,5,29,5h-3.8c-0.9,0-1.7-0.5-1.8-1.1c-0.1-0.3-0.6-3.3-3.4-3.3c-2.8,0-3.3,3-3.4,3.3
		C16.5,4.5,15.7,5,14.8,5H11c-0.9,0-1.8,0.7-2.1,1.5L7.6,10c-0.1,0.4-0.1,0.8,0.1,1C7.9,11.3,8.2,11.4,8.6,11.4z M20,1.5
		c0.7,0,1.4,0.6,1.4,1.4c0,0.7-0.6,1.4-1.4,1.4c-0.7,0-1.4-0.6-1.4-1.4C18.6,2.1,19.3,1.5,20,1.5z"/>
</g>
<g id="Layer_4">
</g>
<g id="Isolation_Mode" class="st3">
</g>
</svg>
