<?xml version="1.0" encoding="UTF-8"?>
<svg width="23px" height="23px" viewBox="0 0 23 23" version="1.1" xmlns="http://www.w3.org/2000/svg" xmlns:xlink="http://www.w3.org/1999/xlink">
    <!-- Generator: Sketch 52.1 (67048) - http://www.bohemiancoding.com/sketch -->
    <title>@2xplus</title>
    <desc>Created with Sketch.</desc>
    <g id="Symbols" stroke="none" stroke-width="1" fill="none" fill-rule="evenodd">
        <g id="plus" fill="#FFFFFF" fill-rule="nonzero">
            <g id="Shape">
                <path d="M11.5,0 C5.14839216,0 0,5.14839216 0,11.5 C0,17.8516078 5.14839216,23 11.5,23 C17.8516078,23 23,17.8508562 23,11.5 C23,5.14914379 17.8516078,0 11.5,0 Z M11.5,21.5625 C5.94260621,21.5625 1.4375,17.0573938 1.4375,11.5 C1.4375,5.94260621 5.94260621,1.4375 11.5,1.4375 C17.0573938,1.4375 21.5625,5.94260621 21.5625,11.5 C21.5625,17.0573938 17.0573938,21.5625 11.5,21.5625 Z M15.8125,10.78125 L12.21875,10.78125 L12.21875,7.1875 C12.21875,6.79075 11.89675,6.46875 11.5,6.46875 C11.10325,6.46875 10.78125,6.79075 10.78125,7.1875 L10.78125,10.78125 L7.1875,10.78125 C6.79075,10.78125 6.46875,11.10325 6.46875,11.5 C6.46875,11.89675 6.79075,12.21875 7.1875,12.21875 L10.78125,12.21875 L10.78125,15.8125 C10.78125,16.20925 11.10325,16.53125 11.5,16.53125 C11.89675,16.53125 12.21875,16.20925 12.21875,15.8125 L12.21875,12.21875 L15.8125,12.21875 C16.20925,12.21875 16.53125,11.89675 16.53125,11.5 C16.53125,11.10325 16.20925,10.78125 15.8125,10.78125 Z"></path>
            </g>
        </g>
    </g>
</svg>