<?xml version="1.0" encoding="UTF-8"?>
<svg width="21px" height="21px" viewBox="0 0 21 21" version="1.1" xmlns="http://www.w3.org/2000/svg" xmlns:xlink="http://www.w3.org/1999/xlink">
    <!-- Generator: Sketch 51 (57462) - http://www.bohemiancoding.com/sketch -->
    <title>ic</title>
    <desc>Created with Sketch.</desc>
    <defs></defs>
    <g id="Page-1" stroke="none" stroke-width="1" fill="none" fill-rule="evenodd">
        <path d="M20.0449219,2.71875 L20.0449219,18.3339844 C20.0449219,19.3105469 19.2636719,20.0917969 18.2871094,20.0917969 L2.671875,20.0917969 C1.6953125,20.0917969 0.9140625,19.3105469 0.9140625,18.3339844 L0.9140625,2.71875 C0.9140625,1.7421875 1.6953125,0.9609375 2.671875,0.9609375 L18.2871094,0.9609375 C19.2636719,0.9609375 20.0449219,1.7421875 20.0449219,2.71875 Z M18.1308594,16.7714844 L18.1308594,4.28125 C18.1308594,3.5 17.5058594,2.875 16.7246094,2.875 L4.22460938,2.875 C3.44335938,2.875 2.81835938,3.5 2.81835938,4.28125 L2.81835938,16.7714844 C2.81835938,17.5527344 3.44335938,18.1777344 4.22460938,18.1777344 L16.7246094,18.1777344 C17.5058594,18.1777344 18.1308594,17.5527344 18.1308594,16.7714844 Z M6.67578125,8.19726562 C6.72460938,6.24414062 8.11132812,4.92578125 10.5429688,4.92578125 C12.828125,4.92578125 14.3222656,6.15625 14.3222656,7.96289062 C14.3222656,9.11523438 13.7558594,9.92578125 12.6328125,10.5703125 C11.5683594,11.1757812 11.2753906,11.546875 11.2753906,12.2792969 L11.2753906,12.6894531 L9.14648438,12.6894531 L9.13671875,12.2890625 C9.02929688,11.0292969 9.46875,10.3554688 10.5527344,9.7109375 C11.578125,9.10546875 11.8808594,8.74414062 11.8808594,8.03125 C11.8808594,7.328125 11.2851562,6.83007812 10.40625,6.83007812 C9.5078125,6.83007812 8.91210938,7.3671875 8.87304688,8.19726562 L6.67578125,8.19726562 Z M10.2988281,16.4394531 C9.40039062,16.4394531 8.83398438,15.9316406 8.83398438,15.1015625 C8.83398438,14.2617188 9.40039062,13.7636719 10.2988281,13.7636719 C11.1972656,13.7636719 11.7539062,14.2617188 11.7539062,15.1015625 C11.7539062,15.9316406 11.1972656,16.4394531 10.2988281,16.4394531 Z" id="ic" fill="#78909C"></path>
    </g>
</svg>