<?xml version="1.0" encoding="UTF-8"?>
<svg width="23px" height="21px" viewBox="0 0 23 21" version="1.1" xmlns="http://www.w3.org/2000/svg" xmlns:xlink="http://www.w3.org/1999/xlink">
    <!-- Generator: Sketch 51 (57462) - http://www.bohemiancoding.com/sketch -->
    <title>Page 1</title>
    <desc>Created with Sketch.</desc>
    <defs></defs>
    <g id="JC-" stroke="none" stroke-width="1" fill="none" fill-rule="evenodd">
        <path d="M20.252578,18.0014553 C20.252578,18.7229549 19.6906108,19.3100889 18.9998185,19.3100889 C18.3090261,19.3100889 17.7472781,18.7229549 17.7472781,18.0014553 C17.7472781,17.2797269 18.3090261,16.6925928 18.9998185,16.6925928 C19.6906108,16.6925928 20.252578,17.2797269 20.252578,18.0014553 M10.1932566,19.3100889 C9.50268334,19.3100889 8.9407162,18.7229549 8.9407162,18.0014553 C8.9407162,17.2797269 9.50268334,16.6925928 10.1932566,16.6925928 C10.884049,16.6925928 11.4460161,17.2797269 11.4460161,18.0014553 C11.4460161,18.7229549 10.884049,19.3100889 10.1932566,19.3100889 M21.2906288,5.57687558 C21.3429914,5.65607573 21.354165,5.75313024 21.3215205,5.84285988 L19.0631356,12.0545775 C19.0226039,12.1658239 18.9189741,12.2406749 18.8052661,12.2406749 L9.25357743,12.2406749 L6.78508474,5.45212391 L21.063651,5.45212391 C21.155669,5.45212391 21.2384852,5.49767544 21.2906288,5.57687558 M19.6805327,12.2995028 L21.9389176,6.08801408 C22.0482437,5.78723666 22.0090265,5.44983489 21.8341923,5.1849951 C21.6593581,4.92038422 21.3712541,4.76221283 21.063651,4.76221283 L6.53422611,4.76221283 L5.39736549,1.63609618 C5.26131029,1.25566081 4.90879367,1.00020601 4.52012711,1.00020601 L1.33016939,1.00020601 C1.147667,1.00020601 1,1.15448606 1,1.34516155 C1,1.53560814 1.147667,1.69011709 1.33016939,1.69011709 L4.52012711,1.69011709 C4.63471145,1.69011709 4.73856035,1.7654259 4.77931118,1.87941917 L5.97203988,5.15935806 C5.97554533,5.18316389 5.98102259,5.20674081 5.98934803,5.22985992 L8.70826117,12.7080931 C8.71724388,12.7323568 8.7284175,12.755247 8.74178202,12.776306 L9.92246074,16.0230541 C8.99548882,16.1608532 8.28015833,16.9952015 8.28015833,18.0014553 C8.28015833,19.1033903 9.13833583,20 10.1932566,20 C11.2481774,20 12.1063549,19.1033903 12.1063549,18.0014553 C12.1063549,17.5010752 11.9291107,17.0434998 11.6372821,16.6925928 L17.555793,16.6925928 C17.2639644,17.0434998 17.0867202,17.5010752 17.0867202,18.0014553 C17.0867202,19.1033903 17.9448977,20 18.9998185,20 C20.0547392,20 20.9129167,19.1033903 20.9129167,18.0014553 C20.9129167,16.9324823 20.1057873,16.0569316 19.0949037,16.0051997 C19.0821965,16.0035974 19.0694892,16.0026818 19.0565629,16.0026818 L18.9998185,16.0026818 L10.8119682,16.0026818 C10.6980411,16.0026818 10.5944113,15.9278308 10.5538796,15.8168132 L9.50443606,12.930586 L18.8052661,12.930586 C19.1915227,12.930586 19.543382,12.6769624 19.6805327,12.2995028" id="Page-1" stroke="#5C6979" stroke-width="1.59375" fill="#367ACA"></path>
    </g>
</svg>
