<?xml version="1.0" encoding="UTF-8"?>
<svg width="39px" height="39px" viewBox="0 0 39 39" version="1.1" xmlns="http://www.w3.org/2000/svg" xmlns:xlink="http://www.w3.org/1999/xlink">
    <!-- Generator: Sketch 51 (57462) - http://www.bohemiancoding.com/sketch -->
    <title>snow icon</title>
    <desc>Created with Sketch.</desc>
    <defs></defs>
    <g id="JC-" stroke="none" stroke-width="1" fill="none" fill-rule="evenodd">
        <g id="HOME-DESIGN-2-" transform="translate(-167.000000, -388.000000)">
            <rect x="0" y="0" width="360" height="800"></rect>
            <g id="snow-icon" transform="translate(169.000000, 390.000000)">
                <circle id="Oval-8" stroke="#EAEAEA" stroke-width="3" fill="#1764A7" fill-rule="nonzero" cx="17.5" cy="17.5" r="17.5"></circle>
                <path d="M14.5049636,18.0020711 C14.5049636,16.4363134 15.506949,15.1108043 16.8755791,14.684156 L16.8755791,21.3199862 C15.506949,20.8919572 14.5049636,19.5678288 14.5049636,18.0020711 Z M27,19.8177425 L26.24818,18.4563341 L23.365321,20.1933034 L19.7253475,18.0020711 L23.365321,15.8108388 L26.2428855,17.5436659 L26.9960291,16.1822575 L24.8729318,14.9036935 L26.6015884,13.8612358 L25.6512244,12.1449776 L23.9212442,13.1860545 L23.9212442,10.626165 L22.414957,10.626165 L22.414957,14.0945806 L18.7763071,16.2858129 L18.7763071,11.9088712 L21.652548,10.1760442 L20.8994044,8.81463583 L18.7763071,10.0931999 L18.7763071,8 L16.8755791,8 L16.8755791,12.6503279 C16.4202515,12.7373145 15.9874255,12.8891957 15.5797485,13.0921643 L12.9602912,9.3310321 L11.4235606,10.4963756 L14.0416942,14.2575078 C13.730642,14.6013117 13.4566512,14.9851571 13.2369292,15.4049016 L9.00397088,13.9703141 L9,16.057991 L12.6545334,17.2909907 C12.6254136,17.5243355 12.602912,17.7604418 12.602912,18.0020711 C12.602912,18.2437004 12.6254136,18.4798067 12.6545334,18.7131515 L9,19.9406282 L9.00397088,22.0338281 L13.2369292,20.5992406 C13.4566512,21.0203659 13.730642,21.4014498 14.0416942,21.7452537 L11.4235606,25.5091474 L12.9602912,26.6731101 L15.5797485,22.9119779 C15.9874255,23.1149465 16.4202515,23.2668278 16.8755791,23.3538143 L16.8755791,28 L18.7763071,28 L18.7763071,25.9109424 L20.911317,27.1964101 L21.6657842,25.8350017 L18.7763071,24.095271 L18.7763071,19.7183293 L22.4189279,21.9137038 L22.4189279,25.3724543 L23.9278623,25.3724543 L23.9278623,22.8208492 L25.6512244,23.8591647 L26.6015884,22.1429065 L24.8716082,21.1004487 L27,19.8177425 Z" id="Fill-14" fill="#FFFFFF"></path>
            </g>
        </g>
    </g>
</svg>
