<?xml version="1.0" encoding="utf-8"?>
<!-- Generator: Adobe Illustrator 19.0.0, SVG Export Plug-In . SVG Version: 6.00 Build 0)  -->
<svg version="1.1" xmlns="http://www.w3.org/2000/svg" xmlns:xlink="http://www.w3.org/1999/xlink" x="0px" y="0px"
	 viewBox="184 204.4 963 349.5" style="enable-background:new 184 204.4 963 349.5;" xml:space="preserve">
<style type="text/css">
	.st0{display:none;}
	.st1{fill:#FFFFFF;}
	.st2{filter:url(#Adobe_OpacityMaskFilter);}
	.st3{mask:url(#mask-2_1_);fill:#FEFEFE;}
	.st4{fill:#FEFEFE;}
	.st5{filter:url(#Adobe_OpacityMaskFilter_1_);}
	.st6{mask:url(#mask-4_1_);fill:#FEFEFE;}
</style>
<g id="Layer_2">
	<rect x="51.6" y="204.4" class="st0" width="1169.9" height="405"/>
	<g>
		<path class="st1" d="M425,455c1.3,0,2.4-0.5,3.3-1.4c0.9-0.9,1.4-2,1.4-3.3c0-1.3-0.5-2.3-1.4-3.3c-0.9-0.9-2-1.4-3.3-1.4
			c-1.3,0-2.4,0.5-3.3,1.4c-0.9,0.9-1.4,2-1.4,3.3c0,1.3,0.5,2.3,1.4,3.3C422.7,454.6,423.7,455,425,455z"/>
		<path class="st1" d="M435.7,455c1.3,0,2.4-0.5,3.3-1.4c0.9-0.9,1.4-2,1.4-3.3c0-1.3-0.5-2.3-1.4-3.3c-0.9-0.9-2-1.4-3.3-1.4
			c-1.3,0-2.4,0.5-3.3,1.4c-0.9,0.9-1.4,2-1.4,3.3c0,1.3,0.5,2.3,1.4,3.3C433.3,454.6,434.4,455,435.7,455z"/>
		<path class="st1" d="M584.8,483.4h-7.5c-1,0-2.2-0.2-3.3-0.6c-1.2-0.4-2-1.1-2.6-2.2c0-0.3,0-0.5,0-0.8c0-0.3,0-0.5,0-0.8
			c0-2-0.3-3.8-0.9-5.4c-0.6-1.6-1.4-3.1-2.5-4.2c-1.1-1.2-2.3-2.1-3.8-2.7c-1.5-0.7-3.1-1-4.8-1c-1.2,0-2.4,0.2-3.6,0.6
			c-1.2,0.4-2.4,1.1-3.6,2.1c-1.2,1-2.4,2.3-3.5,3.9c-1.1,1.6-2.2,3.7-3.1,6.2c-0.6,1.7-1.3,2.9-2.1,3.8c-0.8,0.9-1.4,1.3-1.9,1.3
			h-3.4c-1,0-2.2-0.2-3.3-0.6c-1.2-0.4-2-1.1-2.6-2.2c0-0.3,0-0.5,0-0.8c0-0.3,0-0.5,0-0.8c0-2-0.3-3.8-0.9-5.4
			c-0.6-1.6-1.4-3.1-2.5-4.2c-1.1-1.2-2.3-2.1-3.8-2.7c-1.5-0.7-3.1-1-4.8-1c-1.2,0-2.4,0.2-3.6,0.6c-1.2,0.4-2.4,1.1-3.6,2.1
			c-1.2,1-2.4,2.3-3.5,3.9c-1.1,1.6-2.2,3.7-3.1,6.2c-0.6,1.7-1.3,2.9-2.1,3.8c-0.8,0.9-1.4,1.3-1.9,1.3h-3.4c-1,0-1.9-0.1-2.5-0.3
			c-0.6-0.2-1.1-0.4-1.4-0.8c-0.3-0.3-0.5-0.8-0.6-1.4c-0.1-0.6-0.1-1.3-0.1-2.1v-34.5h-8.5v35.2c0,1.6-0.3,2.6-0.9,3.1
			c-0.6,0.5-1.6,0.7-3.1,0.7h-4c-1.7,0-3.1-0.5-4.1-1.5c-1-1-1.9-2.4-2.6-4.4c-1-2.7-2.5-5.3-4.4-7.8c-1.9-2.5-4.5-4.8-7.8-6.9v-0.3
			l14.6-6.3v-8.9l-24.2,10.5c-0.3,0.2-0.6,0.4-0.9,0.7c-0.3,0.3-0.6,0.7-0.8,1.2c-0.3,0.5-0.5,1.2-0.7,2.1c-0.2,0.9-0.4,2-0.6,3.4
			c3,1.5,5.6,2.9,7.7,4.4c2.1,1.5,3.9,2.9,5.2,4.2c1.3,1.3,2.3,2.6,2.9,3.7c0.6,1.2,0.9,2.1,0.9,3c0,1-0.3,1.7-0.9,2.2
			c-0.6,0.5-1.7,0.7-3.2,0.7h-14.4h-1.6c-1,0-1.6-0.2-1.8-0.6c-0.3-0.4-0.4-1.1-0.4-2.1v-19.5h-11.1c-1.6,0-3.2,0.2-4.8,0.7
			c-1.6,0.5-3.1,1.2-4.4,2.2c-1.3,1-2.4,2.4-3.3,4c-0.8,1.7-1.3,3.7-1.3,6.1c0,2.4,0.4,4.4,1.3,6c0.9,1.5,2,2.7,3.3,3.6
			c1.3,0.9,2.6,1.5,4.1,1.8c1.4,0.3,2.7,0.5,3.8,0.5c0.8,0,1.6-0.1,2.4-0.2c0.8-0.1,1.5-0.2,2.3-0.4c0.3,1.1,0.8,2,1.5,2.6
			c0.6,0.7,1.4,1.2,2.2,1.6c0.8,0.4,1.7,0.7,2.7,0.8c1,0.2,2,0.2,3,0.2h2.2H458c1.2,0,2.3,0,3.3-0.1c1-0.1,2-0.2,2.9-0.5
			c0.9-0.3,1.8-0.7,2.5-1.2c0.8-0.5,1.5-1.3,2.3-2.2c0.7,1,1.3,1.7,2.1,2.2c0.7,0.5,1.5,1,2.2,1.2c0.8,0.3,1.5,0.5,2.3,0.5
			c0.8,0.1,1.5,0.1,2.3,0.1c0,0,0,0,0,0h5.4c0.9,0,1.8,0,2.6-0.1c0.9-0.1,1.8-0.2,2.6-0.4c0.8-0.2,1.6-0.6,2.4-1
			c0.7-0.5,1.4-1.1,1.9-1.8c0.8,1.4,1.7,2.3,2.8,2.7c1.1,0.4,2.3,0.6,3.5,0.6c0,0,0,0,0,0h3.5c1.4,0,2.7-0.1,3.9-0.4
			c1.2-0.3,2.3-1,3.5-2.3c2,1.3,3.8,2.1,5.6,2.7c1.8,0.5,3.5,0.8,5.3,0.8c4.6,0,7.8-1.6,9.7-4.8c1,1.4,2.1,2.4,3.4,3
			c1.3,0.6,2.8,0.9,4.4,0.9h3.5c1.4,0,2.7-0.1,3.9-0.4c1.2-0.3,2.3-1,3.5-2.3c2,1.3,3.8,2.1,5.6,2.7c1.8,0.5,3.5,0.8,5.3,0.8
			c4.6,0,7.8-1.6,9.7-4.8c1,1.4,2.1,2.4,3.4,3c1.3,0.6,2.8,0.9,4.4,0.9h16.1v-46.5h-8.6V483.4z M432.4,478.3
			c-0.6,0.2-1.2,0.3-1.8,0.4c-0.6,0-1.2,0.1-1.7,0.1c-0.9,0-1.7-0.2-2.3-0.5c-0.6-0.3-1.1-0.7-1.4-1.1c-0.3-0.5-0.6-1-0.7-1.6
			c-0.1-0.6-0.2-1.1-0.2-1.7c0-1.4,0.4-2.5,1.2-3.4c0.8-0.8,2-1.3,3.6-1.3h3.3V478.3z M522.9,482.4c-0.8,0.9-1.8,1.4-3.2,1.4
			c-1.1,0-2.2-0.2-3.2-0.6c-1-0.4-2-0.9-3.1-1.6c0.3-1.6,0.8-2.9,1.3-3.9c0.5-1,1-1.9,1.6-2.5c0.6-0.7,1.2-1.1,1.8-1.4
			c0.6-0.3,1.2-0.4,1.8-0.4c0.8,0,1.4,0.2,2,0.5c0.5,0.3,1,0.7,1.3,1.2c0.3,0.5,0.6,1.1,0.7,1.7c0.2,0.7,0.2,1.3,0.2,2
			C524,480.2,523.6,481.5,522.9,482.4z M562,482.4c-0.8,0.9-1.8,1.4-3.2,1.4c-1.1,0-2.2-0.2-3.2-0.6c-1-0.4-2-0.9-3.1-1.6
			c0.3-1.6,0.8-2.9,1.3-3.9c0.5-1,1-1.9,1.6-2.5c0.6-0.7,1.2-1.1,1.8-1.4c0.6-0.3,1.2-0.4,1.8-0.4c0.8,0,1.4,0.2,2,0.5
			c0.5,0.3,1,0.7,1.3,1.2c0.3,0.5,0.6,1.1,0.7,1.7c0.2,0.7,0.2,1.3,0.2,2C563.1,480.2,562.8,481.5,562,482.4z"/>
		<rect x="601.2" y="444.4" class="st1" width="8.4" height="46.5"/>
		<path class="st1" d="M647.9,510.7c-1.3,0-2.4,0.5-3.3,1.4c-0.9,0.9-1.4,2-1.4,3.3s0.5,2.3,1.4,3.3c0.9,0.9,2,1.4,3.3,1.4
			c1.3,0,2.4-0.5,3.3-1.4c0.9-0.9,1.4-2,1.4-3.3s-0.5-2.3-1.4-3.3C650.3,511.2,649.2,510.7,647.9,510.7z"/>
		<path class="st1" d="M658.6,510.7c-1.3,0-2.4,0.5-3.3,1.4c-0.9,0.9-1.4,2-1.4,3.3s0.5,2.3,1.4,3.3c0.9,0.9,2,1.4,3.3,1.4
			c1.3,0,2.4-0.5,3.3-1.4c0.9-0.9,1.4-2,1.4-3.3s-0.5-2.3-1.4-3.3C660.9,511.2,659.8,510.7,658.6,510.7z"/>
		<path class="st1" d="M696.3,458.3c1.3,0,2.4-0.5,3.3-1.4c0.9-0.9,1.4-2,1.4-3.3s-0.5-2.3-1.4-3.3c-0.9-0.9-2-1.4-3.3-1.4
			c-1.3,0-2.4,0.5-3.3,1.4c-0.9,0.9-1.4,2-1.4,3.3s0.5,2.3,1.4,3.3C694,457.8,695,458.3,696.3,458.3z"/>
		<path class="st1" d="M706.5,468.8c-0.9-1.4-2.2-2.5-3.8-3.4c-1.6-0.9-3.7-1.3-6.1-1.3c-2.1,0-4,0.4-5.7,1.2
			c-1.7,0.8-3,1.8-4.1,3.1c-1.1,1.3-2,2.7-2.5,4.4c-0.6,1.7-0.9,3.3-0.9,5c0,0.9,0.1,1.9,0.2,3c0.2,1.1,0.4,1.9,0.8,2.6h-5.7h-8.2
			c-2.1,0-4.4-0.3-7.1-1c-2.6-0.7-5.4-1.4-8.2-2.3v7.7c3.8,1,6.8,1.8,9,2.6c2.2,0.8,3.4,1.7,3.4,2.9c0,0.4-0.2,0.9-0.5,1.5
			c-0.3,0.6-1,1.1-2,1.6c-1,0.5-2.5,1-4.3,1.3c-1.9,0.3-4.3,0.5-7.3,0.5c-4.7,0-8.1-0.6-10.1-1.9c-2-1.3-3.1-3.3-3.1-6.2v-10.5h-8.5
			v10.8c0,2.2,0.3,4.3,1,6.2c0.7,1.9,1.8,3.5,3.4,4.9c1.6,1.4,3.8,2.5,6.6,3.3c2.8,0.8,6.3,1.2,10.5,1.2c4.4,0,8-0.3,10.9-0.9
			c2.9-0.6,5.2-1.5,6.9-2.5c1.7-1.1,2.9-2.4,3.6-3.8c0.7-1.5,1-3.1,1-4.9c0-0.7,0-1.2-0.1-1.7c-0.1-0.5-0.1-0.9-0.2-1.3h3.3H709
			v-12.6c0-1.6-0.2-3.2-0.6-4.9C708.1,471.7,707.4,470.2,706.5,468.8z M700.6,483.4h-3.7c-1.5,0-2.7-0.4-3.8-1.3
			c-1-0.9-1.6-2.4-1.6-4.7c0-0.7,0.1-1.4,0.2-2.1c0.2-0.7,0.4-1.3,0.8-1.8c0.4-0.5,0.8-0.9,1.4-1.3c0.6-0.3,1.3-0.5,2.3-0.5
			c0.9,0,1.6,0.2,2.2,0.6c0.6,0.4,1,0.9,1.3,1.5c0.3,0.6,0.5,1.3,0.7,2.1c0.1,0.8,0.2,1.6,0.2,2.5V483.4z"/>
		<path class="st1" d="M779.1,458.3c1.3,0,2.4-0.5,3.3-1.4c0.9-0.9,1.4-2,1.4-3.3s-0.5-2.3-1.4-3.3c-0.9-0.9-2-1.4-3.3-1.4
			s-2.4,0.5-3.3,1.4c-0.9,0.9-1.4,2-1.4,3.3s0.5,2.3,1.4,3.3C776.8,457.8,777.9,458.3,779.1,458.3z"/>
		<path class="st1" d="M803.5,497.2c-1.3,0-2.4,0.5-3.3,1.4c-0.9,0.9-1.4,2-1.4,3.3c0,1.3,0.5,2.3,1.4,3.3c0.9,0.9,2,1.4,3.3,1.4
			c1.3,0,2.4-0.5,3.3-1.4c0.9-0.9,1.4-2,1.4-3.3c0-1.3-0.5-2.3-1.4-3.3C805.9,497.6,804.8,497.2,803.5,497.2z"/>
		<path class="st1" d="M814.2,497.2c-1.3,0-2.4,0.5-3.3,1.4c-0.9,0.9-1.4,2-1.4,3.3c0,1.3,0.5,2.3,1.4,3.3c0.9,0.9,2,1.4,3.3,1.4
			c1.3,0,2.4-0.5,3.3-1.4c0.9-0.9,1.4-2,1.4-3.3c0-1.3-0.5-2.3-1.4-3.3C816.5,497.6,815.5,497.2,814.2,497.2z"/>
		<path class="st1" d="M826.9,497.2c-1.3,0-2.4,0.5-3.3,1.4c-0.9,0.9-1.4,2-1.4,3.3c0,1.3,0.5,2.3,1.4,3.3c0.9,0.9,2,1.4,3.3,1.4
			c1.3,0,2.4-0.5,3.3-1.4c0.9-0.9,1.4-2,1.4-3.3c0-1.3-0.5-2.3-1.4-3.3C829.3,497.6,828.2,497.2,826.9,497.2z"/>
		<path class="st1" d="M837.6,497.2c-1.3,0-2.4,0.5-3.3,1.4c-0.9,0.9-1.4,2-1.4,3.3c0,1.3,0.5,2.3,1.4,3.3c0.9,0.9,2,1.4,3.3,1.4
			c1.3,0,2.4-0.5,3.3-1.4c0.9-0.9,1.4-2,1.4-3.3c0-1.3-0.5-2.3-1.4-3.3C839.9,497.6,838.8,497.2,837.6,497.2z"/>
		<path class="st1" d="M884.7,483.4h-7.5c-1.7,0-3.1-0.5-4.1-1.5c-1-1-1.9-2.4-2.6-4.4c-1-2.7-2.5-5.3-4.4-7.8
			c-1.9-2.5-4.5-4.8-7.8-6.9v-0.3l14.6-6.3v-8.9l-24.2,10.5c-0.3,0.2-0.6,0.4-0.9,0.7c-0.3,0.3-0.6,0.7-0.8,1.2
			c-0.3,0.5-0.5,1.2-0.7,2.1s-0.4,2-0.6,3.4c3,1.5,5.6,2.9,7.7,4.4c2.1,1.5,3.9,2.9,5.2,4.2c1.3,1.3,2.3,2.6,2.9,3.7
			c0.6,1.2,0.9,2.1,0.9,3c0,1-0.3,1.7-0.9,2.2c-0.6,0.5-1.7,0.7-3.2,0.7H844c-2.1,0-3.6-0.3-4.4-1c-0.8-0.7-1.3-1.8-1.3-3.5v-13.9
			h-8.5v14.6c0,1.6-0.3,2.6-0.9,3.1c-0.6,0.5-1.6,0.7-3.1,0.7h-5.2c-2.1,0-3.6-0.3-4.4-1c-0.8-0.7-1.3-1.8-1.3-3.5v-13.9h-8.5v14.6
			c0,1.6-0.3,2.6-0.9,3.1c-0.6,0.5-1.6,0.7-3.1,0.7h-5.2h-5.2v-5.1c0-1.6-0.2-3.2-0.6-4.9c-0.4-1.7-1-3.2-2-4.6s-2.2-2.5-3.8-3.4
			c-1.6-0.9-3.7-1.3-6.1-1.3c-2.1,0-4,0.4-5.6,1.2s-3,1.8-4.1,3.1c-1.1,1.3-2,2.7-2.5,4.4c-0.6,1.7-0.9,3.3-0.9,5
			c0,0.9,0.1,1.9,0.2,3c0.2,1.1,0.4,1.9,0.8,2.6h-20.7c-1.5,0-2.7,0-3.7-0.1c-1-0.1-1.7-0.3-2.3-0.6c-0.6-0.3-1-0.7-1.2-1.2
			c-0.2-0.5-0.3-1.2-0.3-2.1v-9.6h-8.5v10.7c0,1.9,0.2,3.5,0.7,4.8c0.5,1.3,1.2,2.4,2.3,3.2c1,0.8,2.4,1.4,4.2,1.8
			c1.7,0.4,3.9,0.6,6.5,0.6h52.9h6.6c0.9,0,1.8,0,2.6-0.1c0.9-0.1,1.8-0.2,2.6-0.4c0.8-0.2,1.6-0.6,2.4-1c0.7-0.5,1.4-1.1,1.9-1.8
			c0.4,0.7,0.9,1.3,1.5,1.7c0.6,0.4,1.2,0.8,1.9,1c0.7,0.2,1.3,0.4,2,0.5c0.7,0.1,1.3,0.1,2,0.1c0,0,0,0,0,0h6.6
			c0.9,0,1.8,0,2.6-0.1c0.9-0.1,1.8-0.2,2.6-0.4c0.8-0.2,1.6-0.6,2.4-1c0.7-0.5,1.4-1.1,1.9-1.8c0.4,0.7,0.9,1.3,1.5,1.7
			c0.6,0.4,1.2,0.8,1.9,1c0.7,0.2,1.3,0.4,2,0.5c0.7,0.1,1.3,0.1,2,0.1h13.3c1.2,0,2.3,0,3.3-0.1c1-0.1,2-0.2,2.9-0.5
			c0.9-0.3,1.8-0.7,2.5-1.2c0.8-0.5,1.5-1.3,2.3-2.2c0.7,1,1.3,1.7,2.1,2.2c0.7,0.5,1.5,1,2.2,1.2c0.8,0.3,1.5,0.5,2.3,0.5
			c0.8,0.1,1.5,0.1,2.3,0.1c0,0,0,0,0,0h16.1v-25.9h-8.6V483.4z M783.6,483.4h-3.7c-1.4,0-2.7-0.4-3.7-1.3c-1-0.9-1.6-2.4-1.6-4.7
			c0-0.7,0.1-1.4,0.2-2.1c0.2-0.7,0.4-1.3,0.8-1.8c0.3-0.5,0.8-0.9,1.4-1.3c0.6-0.3,1.3-0.5,2.2-0.5c0.9,0,1.7,0.2,2.2,0.6
			c0.6,0.4,1,0.9,1.3,1.5c0.3,0.6,0.5,1.3,0.7,2.1c0.1,0.8,0.2,1.6,0.2,2.5V483.4z"/>
		<path class="st1" d="M883,458.3c1.3,0,2.4-0.5,3.3-1.4c0.9-0.9,1.4-2,1.4-3.3s-0.5-2.3-1.4-3.3c-0.9-0.9-2-1.4-3.3-1.4
			c-1.3,0-2.4,0.5-3.3,1.4c-0.9,0.9-1.4,2-1.4,3.3s0.5,2.3,1.4,3.3C880.7,457.8,881.8,458.3,883,458.3z"/>
		<path class="st1" d="M893.7,449c-1.3,0-2.4,0.5-3.3,1.4c-0.9,0.9-1.4,2-1.4,3.3s0.5,2.3,1.4,3.3c0.9,0.9,2,1.4,3.3,1.4
			c1.3,0,2.4-0.5,3.3-1.4c0.9-0.9,1.4-2,1.4-3.3s-0.5-2.3-1.4-3.3C896,449.5,894.9,449,893.7,449z"/>
		<path class="st1" d="M953.5,462.8c-2.4,0-4.6,0.4-6.4,1.3s-3.3,2-4.5,3.4c-1.2,1.4-2.1,2.9-2.7,4.7c-0.6,1.7-0.9,3.4-0.9,5.1
			c0,1.5,0.2,2.8,0.7,3.9c0.5,1.1,1.1,2.1,1.9,3s1.8,1.7,2.9,2.4c1.1,0.7,2.3,1.4,3.6,2c1.1,0.6,1.9,1.1,2.4,1.5
			c0.5,0.4,0.8,0.9,0.8,1.6c0,0.6-0.2,1.3-0.6,2c-0.4,0.7-1.1,1.4-2.2,2.1c-1.1,0.6-2.5,1.2-4.4,1.6c-1.9,0.4-4.4,0.7-7.4,0.7
			c-2.4,0-4.5-0.2-6.1-0.6c-1.6-0.4-2.9-1-3.9-1.7c-1-0.7-1.7-1.6-2.1-2.6c-0.4-1-0.6-2.1-0.6-3.4v-10.1h-8.5v10.5
			c0,2.3,0.4,4.4,1.1,6.3c0.7,1.9,1.9,3.6,3.6,5c1.7,1.4,3.9,2.5,6.6,3.4c2.7,0.8,6,1.2,10,1.2c4.5,0,8.2-0.5,11.2-1.5
			c3-1,5.4-2.2,7.2-3.8c1.8-1.5,3.1-3.3,3.8-5.2c0.7-1.9,1.1-3.8,1.1-5.6c0-0.9-0.1-1.8-0.4-2.6c-0.2-0.8-0.7-1.6-1.2-2.3
			c-0.6-0.7-1.4-1.4-2.4-2.1c-1-0.7-2.3-1.4-3.9-2.1c-1.3-0.6-2.4-1.3-3.3-2c-0.9-0.7-1.3-1.5-1.3-2.5c0-0.7,0.1-1.3,0.4-1.9
			c0.3-0.6,0.7-1.2,1.2-1.7c0.5-0.5,1.2-0.9,2.1-1.3c0.8-0.3,1.8-0.5,2.9-0.5c0.6,0,1.5,0.1,2.6,0.2c1.1,0.1,2.4,0.3,4,0.7v-7.6
			c-0.6-0.2-1.5-0.5-2.8-0.8C956.5,463,955.1,462.8,953.5,462.8z"/>
		<path class="st1" d="M1018.7,458.3c1.3,0,2.4-0.5,3.3-1.4c0.9-0.9,1.4-2,1.4-3.3s-0.5-2.3-1.4-3.3c-0.9-0.9-2-1.4-3.3-1.4
			c-1.3,0-2.4,0.5-3.3,1.4c-0.9,0.9-1.4,2-1.4,3.3s0.5,2.3,1.4,3.3C1016.4,457.8,1017.5,458.3,1018.7,458.3z"/>
		<path class="st1" d="M1008.1,458.3c1.3,0,2.4-0.5,3.3-1.4c0.9-0.9,1.4-2,1.4-3.3s-0.5-2.3-1.4-3.3c-0.9-0.9-2-1.4-3.3-1.4
			c-1.3,0-2.4,0.5-3.3,1.4c-0.9,0.9-1.4,2-1.4,3.3s0.5,2.3,1.4,3.3C1005.7,457.8,1006.8,458.3,1008.1,458.3z"/>
		<path class="st1" d="M1024.4,468.8c-0.9-1.4-2.2-2.5-3.8-3.4c-1.6-0.9-3.7-1.3-6.1-1.3c-2.1,0-4,0.4-5.7,1.2s-3,1.8-4.1,3.1
			c-1.1,1.3-2,2.7-2.5,4.4c-0.6,1.7-0.9,3.3-0.9,5c0,0.9,0.1,1.9,0.2,3c0.2,1.1,0.4,1.9,0.8,2.6h-5.7c-0.1,0-0.3,0-0.4,0
			c-0.1,0-0.2,0-0.4,0h-4.8v-1.9c0-2.5-0.2-4.7-0.7-6.8c-0.4-2.1-1.2-3.8-2.2-5.3c-1-1.5-2.3-2.7-4-3.5c-1.6-0.8-3.6-1.2-6-1.2
			c-2.1,0-4,0.4-5.7,1.2c-1.7,0.8-3,1.9-4.2,3.2c-1.1,1.3-2,2.9-2.6,4.6c-0.6,1.7-0.9,3.4-0.9,5.1c0,2.2,0.3,4,1,5.6
			c0.7,1.5,1.6,2.8,2.7,3.8c1.2,1,2.6,1.7,4.2,2.1c1.6,0.4,3.4,0.7,5.3,0.7h4c-0.1,0.9-0.4,1.6-0.9,2.3c-0.5,0.7-1.2,1.3-2.2,1.8
			c-1,0.5-2.2,0.9-3.8,1.1c-1.5,0.3-3.4,0.4-5.6,0.4H968v7.9h2c6.6,0,11.5-1.1,14.8-3.2c3.3-2.1,5.3-5.6,5.9-10.3h5
			c0.1,0,0.3,0,0.4,0c0.1,0,0.2,0,0.4,0h30.4v-12.6c0-1.6-0.2-3.2-0.6-4.9C1025.9,471.7,1025.3,470.2,1024.4,468.8z M982.4,483.4
			h-4.3c-1.5,0-2.7-0.4-3.6-1.1c-0.9-0.8-1.3-2.2-1.3-4.3c0-1.6,0.4-3,1.1-4.1c0.7-1.1,1.9-1.6,3.5-1.6c1.8,0,3,0.7,3.7,2.1
			c0.7,1.4,1,3.1,1,5.2V483.4z M1018.4,483.4h-3.7c-1.5,0-2.7-0.4-3.8-1.3c-1-0.9-1.6-2.4-1.6-4.7c0-0.7,0.1-1.4,0.2-2.1
			c0.2-0.7,0.4-1.3,0.8-1.8c0.4-0.5,0.8-0.9,1.4-1.3c0.6-0.3,1.3-0.5,2.3-0.5c0.9,0,1.6,0.2,2.2,0.6c0.6,0.4,1,0.9,1.3,1.5
			c0.3,0.6,0.5,1.3,0.7,2.1c0.1,0.8,0.2,1.6,0.2,2.5V483.4z"/>
		<rect x="1034.6" y="444.4" class="st1" width="8.4" height="46.5"/>
		<path class="st1" d="M1041.5,435.9c-1,0-1.8-0.2-2.1-0.6c-0.4-0.4-0.6-0.9-0.6-1.5c0-0.6,0.2-1,0.6-1.4c0.4-0.4,1-0.6,1.8-0.6
			c0.5,0,1.3,0.1,2.4,0.4v-4.3c-0.4-0.2-0.9-0.3-1.5-0.5c-0.6-0.1-1.2-0.2-1.9-0.2c-0.7,0-1.5,0.1-2.2,0.4c-0.7,0.3-1.4,0.6-1.9,1.1
			c-0.6,0.5-1,1.1-1.3,1.9c-0.3,0.8-0.5,1.6-0.5,2.6c0,0.3,0,0.8,0.1,1.4c0.1,0.6,0.2,1,0.5,1.3h-2.6v4.6h12.7v-4.6H1041.5z"/>
	</g>
</g>
<g id="Layer_1">
	<title>Artboard</title>
	<desc>Created with Sketch.</desc>
	<g id="Artboard_1_">
		<g id="Group-21_1_" transform="translate(68.000000, 53.000000)">
			<g id="Group-3_1_" transform="translate(325.000000, 0.000000)">
				<g id="Clip-2_1_">
				</g>
				<defs>
					<filter id="Adobe_OpacityMaskFilter" filterUnits="userSpaceOnUse" x="184.9" y="192.3" width="161.5" height="170.6">
						<feColorMatrix  type="matrix" values="1 0 0 0 0  0 1 0 0 0  0 0 1 0 0  0 0 0 1 0"/>
					</filter>
				</defs>
				<mask maskUnits="userSpaceOnUse" x="184.9" y="192.3" width="161.5" height="170.6" id="mask-2_1_">
					<g class="st2">
						<polygon id="path-1_1_" class="st1" points="184.9,192.3 346.4,192.3 346.4,362.9 184.9,362.9 						"/>
					</g>
				</mask>
				<path id="Fill-1_1_" class="st3" d="M302,277.6c0-30.2-13.1-48.7-36.2-48.7c-23.3,0-36.4,18.4-36.4,48.7
					c0,30.2,13.1,49.8,36.4,49.8C288.9,327.4,302,307.8,302,277.6 M184.9,277.6c0-60.2,41.1-85.3,80.8-85.3
					c39.5,0,80.6,25.1,80.6,85.3c0,60.2-41.1,85.3-80.6,85.3C226,362.9,184.9,337.8,184.9,277.6"/>
			</g>
			<path id="Fill-4_1_" class="st4" d="M726.3,268.3h19c18.1,0,26.1-5.1,26.1-18.8c0-13.7-8-18.6-26.1-18.6h-19V268.3z M683,358.9
				v-164h63.9c42,0,67.7,14,67.7,53.4c0,25.7-10.8,40.6-32.3,47.9l37.7,62.7h-46.9l-34.6-56.9h-12.2v56.9H683z"/>
			<polygon id="Fill-6_1_" class="st4" points="831,358.9 831,194.9 875.4,194.9 875.4,252.1 920.6,194.9 972.1,194.9 916.9,259.6 
				977,358.9 926.8,358.9 888,293.3 875.4,309.1 875.4,358.9 			"/>
			<polygon id="Fill-8_1_" class="st4" points="526.9,194.9 476.5,194.9 447.5,245.4 418.6,194.9 368,194.9 425.2,290.4 
				425.2,358.9 469.8,358.9 469.8,290.4 527,194.9 			"/>
			<path id="Fill-10_1_" class="st4" d="M995.7,206.5c1.8,0,2.8-0.6,2.8-2.1c0-1.5-1-2.1-2.8-2.1h-2.2v4.3H995.7z M989.3,198.6h6.6
				c4.1,0,6.5,1.8,6.5,5.6c0,2.6-1.2,4-3,4.9l3.4,6.4h-4.3l-3-6h-2v6h-4.1V198.6z M1007.8,207.5c0-7.2-5.3-12.7-12.4-12.7
				c-7,0-12.2,5.4-12.2,12.5c0,7.2,5.2,12.6,12.4,12.6C1002.6,219.9,1007.8,214.6,1007.8,207.5z M980,207.5
				c0-8.8,6.8-15.6,15.6-15.6c8.7,0,15.4,6.7,15.4,15.4c0,8.8-6.8,15.6-15.6,15.6C986.7,222.9,980,216.2,980,207.5z"/>
			<g id="Group-14_1_" transform="translate(0.000000, 3.000000)">
				<g id="Clip-13_1_">
				</g>
				<defs>
					<filter id="Adobe_OpacityMaskFilter_1_" filterUnits="userSpaceOnUse" x="184" y="192.4" width="48.8" height="44">
						<feColorMatrix  type="matrix" values="1 0 0 0 0  0 1 0 0 0  0 0 1 0 0  0 0 0 1 0"/>
					</filter>
				</defs>
				<mask maskUnits="userSpaceOnUse" x="184" y="192.4" width="48.8" height="44" id="mask-4_1_">
					<g class="st5">
						<polygon id="path-3_1_" class="st1" points="184,192.4 232.8,192.4 232.8,236.4 184,236.4 						"/>
					</g>
				</mask>
				<path id="Fill-12_1_" class="st6" d="M210.2,236.4c1.4-2.5,3.1-4.8,5-6.8L199,207.2l9.5-6.9l16.2,22.4c2.5-1.2,5.2-2.1,8-2.6
					v-27.6H184v35.5L210.2,236.4z"/>
			</g>
			<path id="Fill-15_1_" class="st4" d="M218,254.4c0,9.2,6.3,17,15,19.5v-39C224.3,237.4,218,245.2,218,254.4"/>
			<path id="Fill-17_1_" class="st4" d="M244.4,194.9v12.4l13.1-7.6l4.7,8.1l-17.8,10.3v26l22.5-13v-20.6h9.3v15.2l10.7-6.2
				l5.9,10.2l-10.7,6.2l13.1,7.6l-4.7,8.1l-17.8-10.3l-22.5,13l22.5,13l17.8-10.3l4.7,8.1l-13.2,7.6l10.7,6.2L287,289l-10.7-6.2
				v15.1H267v-20.5l-22.5-13v25.9l17.9,10.3l-4.7,8.1l-13.2-7.6v12.4h-11.8V286c-2.8-0.5-5.5-1.4-8-2.6l-16.2,22.3l-9.5-6.9
				l16.2-22.3c-1.9-2-3.6-4.3-5-6.8l-26.2,8.5v80.8h164v-164H244.4z"/>
			<path id="Fill-19_1_" class="st4" d="M184,242.9v23l23-7.3c-0.2-1.4-0.3-2.8-0.3-4.2c0-1.4,0.1-2.8,0.3-4.2L184,242.9z"/>
		</g>
	</g>
</g>
</svg>
