<?xml version="1.0" encoding="UTF-8"?>
<svg width="124px" height="112px" viewBox="0 0 124 112" version="1.1" xmlns="http://www.w3.org/2000/svg" xmlns:xlink="http://www.w3.org/1999/xlink">
    <!-- Generator: Sketch 51 (57462) - http://www.bohemiancoding.com/sketch -->
    <title>store btn@2x</title>
    <desc>Created with Sketch.</desc>
    <defs>
        <linearGradient x1="0%" y1="50%" x2="74.2004097%" y2="50%" id="linearGradient-1">
            <stop stop-color="#0068A9" offset="0%"></stop>
            <stop stop-color="#029EC1" offset="100%"></stop>
        </linearGradient>
    </defs>
    <g id="JC-" stroke="none" stroke-width="1" fill="none" fill-rule="evenodd">
        <g id="HOME-DESIGN-2-" transform="translate(-197.000000, -351.000000)">
            <rect x="0" y="0" width="360" height="800"></rect>
            <g id="Group-2" transform="translate(197.000000, 351.000000)">
                <g id="store-btn">
                    <rect id="Rectangle-2-Copy" stroke="#E4E4E4" stroke-width="1.12" fill="#FFFFFF" fill-rule="nonzero" x="0.56" y="0.56" width="122.08" height="110.88" rx="8.96"></rect>
                    <text id="Store" font-family="Roboto-Medium, Roboto" font-size="15.68" font-weight="normal" fill="#4A4A4A">
                        <tspan x="43" y="91">Store</tspan>
                    </text>
                    <g id="824695" transform="translate(45.920000, 33.600000)" fill="url(#linearGradient-1)" fill-rule="nonzero">
                        <path d="M0.473278564,13.9636073 C2.52718378,15.8180281 4.85505153,17.92 9.35786983,17.92 C13.8608237,17.9199286 16.1888271,15.8180281 18.2428002,13.9636073 C20.1852216,12.2099059 21.8627674,10.6952612 25.3617572,10.6952612 C28.8608147,10.6952612 30.5383605,12.2099059 32.4807142,13.9636073 C33.0493221,14.4769119 33.9055228,14.4079573 34.3931625,13.8094946 C34.8808023,13.2109605 34.8152954,12.3096973 34.2466875,11.7963927 C32.1927145,9.94197191 29.8647111,7.84 25.3617572,7.84 C20.8588032,7.84 18.5307999,9.94190053 16.4768268,11.7963927 C14.5344054,13.5500941 12.8568596,15.0647388 9.35786983,15.0647388 C5.85894789,15.0647388 4.18160552,13.5501655 2.23931969,11.7963927 C1.67077963,11.2830881 0.814578913,11.3519713 0.326871361,11.9505054 C-0.160836191,12.5489682 -0.0952614967,13.4503027 0.473278564,13.9636073 Z" id="Shape"></path>
                        <path d="M0.473279813,6.12360732 C2.52712264,7.97809947 4.85499653,10.08 9.35789452,10.08 C13.8608603,10.08 16.1888698,7.97809947 18.2428483,6.12360732 C20.1852749,4.36990589 21.8627573,2.8552612 25.3618241,2.8552612 C28.8607552,2.8552612 30.5383055,4.36983451 32.4807999,6.12360732 C33.0494092,6.63705466 33.9055444,6.56788596 34.3931854,5.96935183 C34.8808943,5.37088908 34.8151838,4.46948312 34.2466422,3.95624992 C32.1926638,2.10175777 29.8646543,0 25.3618241,0 C20.8588583,0 18.5308488,2.10190053 16.4768703,3.95639268 C14.5344437,5.71009411 12.8568935,7.2247388 9.35789452,7.2247388 C5.85903116,7.2247388 4.18161656,5.71016549 2.2393256,3.95639268 C1.67078404,3.44301672 0.81451325,3.51197128 0.326872223,4.11050541 C-0.160836616,4.70896815 -0.0952617481,5.61030273 0.473279813,6.12360732 Z" id="Shape"></path>
                        <path d="M34.2466867,18.5163927 C32.1927103,16.6619719 29.8647032,14.56 25.3617419,14.56 C20.8587807,14.56 18.5307735,16.6619005 16.4767971,18.5163927 C14.5343725,20.2700941 12.856824,21.7847388 9.35782854,21.7847388 C5.85910434,21.7847388 4.18162362,20.2701655 2.23933462,18.5165354 L2.239199,18.5163927 C1.67065801,18.0032309 0.814523713,18.0721854 0.326815367,18.6705768 C-0.160825167,19.2690395 -0.0952503656,20.1703741 0.473290621,20.6836787 C2.52719918,22.5381708 4.85513854,24.64 9.35782854,24.64 C13.8607898,24.64 16.188797,22.5380995 18.2427733,20.6836073 C20.185198,18.9299059 21.8627465,17.4152612 25.3617419,17.4152612 C28.8608052,17.4152612 30.5383537,18.9299059 32.4807105,20.6836073 C33.0493193,21.1969119 33.9055214,21.1279573 34.393162,20.5294946 C34.8808025,19.9309605 34.8152955,19.0296973 34.2466867,18.5163927 Z" id="Shape"></path>
                    </g>
                </g>
            </g>
        </g>
    </g>
</svg>
