<?xml version="1.0" encoding="UTF-8"?>
<svg width="40px" height="42px" viewBox="0 0 40 42" version="1.1" xmlns="http://www.w3.org/2000/svg" xmlns:xlink="http://www.w3.org/1999/xlink">
    <!-- Generator: Sketch 52.1 (67048) - http://www.bohemiancoding.com/sketch -->
    <title>@2xsubmit</title>
    <desc>Created with Sketch.</desc>
    <g id="submit" stroke="none" stroke-width="1" fill="none" fill-rule="evenodd">
        <g id="953819" fill="#FFFFFF">
            <path d="M21.7250063,17 L7.27499372,17 C6.5708527,17 6,17.4477298 6,18 C6,18.5522702 6.5708527,19 7.27499372,19 L21.7250063,19 C22.4291473,19 23,18.5522702 23,18 C23,17.4477298 22.4291473,17 21.7250063,17 Z" id="Path"></path>
            <path d="M15.7157061,30 L7.28429394,30 C6.57501669,30 6,30.4477298 6,31 C6,31.5522702 6.57501669,32 7.28429394,32 L15.7157061,32 C16.4249833,32 17,31.5522702 17,31 C17,30.4477298 16.4249833,30 15.7157061,30 Z" id="Path"></path>
            <path d="M38.2158348,9.69381581 C36.2143459,8.16868783 33.3317542,8.53889558 31.7903425,10.5191338 L28.7710293,14.3976609 L28.7710293,8.67162241 C28.7710293,6.79859922 27.2307784,5.27470171 25.3376551,5.27470171 L21.9177955,5.27470171 L21.9177955,3.97491401 C21.9177955,3.28544001 21.352835,2.72647798 20.6559621,2.72647798 L18.5080511,2.72647798 L18.5080511,1.24843603 C18.5079682,0.558962029 17.9429248,0 17.2460518,0 L11.5249775,0 C10.8281045,0 10.2631441,0.558962029 10.2631441,1.24843603 L10.2631441,2.72647798 L8.11523311,2.72647798 C7.41836012,2.72647798 6.85339968,3.28544001 6.85339968,3.97491401 L6.85339968,5.27461968 L3.43337423,5.27461968 C1.54016807,5.27461968 0,6.79851718 0,8.67154037 L0,38.6030793 C0,40.4761845 1.54025098,42 3.43337423,42 L25.3376551,42 C27.2308613,42 28.7710293,40.4761025 28.7710293,38.6030793 L28.7710293,29.255354 L39.0500095,16.051086 C40.5915042,14.0708478 40.2173236,11.2189438 38.2158348,9.69381581 Z M9.37698363,5.22343208 L11.5248946,5.22343208 C12.2217676,5.22343208 12.786728,4.66447005 12.786728,3.97499604 L12.786728,2.4969541 L15.9840526,2.4969541 L15.9840526,3.97499604 C15.9840526,4.66447005 16.549013,5.22343208 17.245886,5.22343208 L19.393797,5.22343208 L19.393797,7.82276137 L9.37698363,7.82276137 L9.37698363,5.22343208 Z M26.2472796,38.6031613 C26.2472796,39.0993693 25.839271,39.5031279 25.3376551,39.5031279 L3.43337423,39.5031279 C2.93175834,39.5031279 2.52374978,39.0993693 2.52374978,38.6031613 L2.52374978,8.67162241 C2.52374978,8.17541441 2.93184125,7.7716558 3.43337423,7.7716558 L6.85331676,7.7716558 L6.85331676,9.07127944 C6.85331676,9.76075344 7.41827721,10.3197155 8.1151502,10.3197155 L20.6557962,10.3197155 C21.3526692,10.3197155 21.9176297,9.76075344 21.9176297,9.07127944 L21.9176297,7.77157377 L25.3375722,7.77157377 C25.8391881,7.77157377 26.2471967,8.17533237 26.2471967,8.67154037 L26.2471967,17.6396243 L21.8921758,23.2340024 C21.7791671,23.2011078 21.65994,23.1828148 21.5362358,23.1828148 L7.23545687,23.1828148 C6.53858388,23.1828148 5.97362344,23.7417768 5.97362344,24.4312508 C5.97362344,25.1207248 6.53858388,25.6796869 7.23545687,25.6796869 L20.1198549,25.6796869 C20.0900067,25.7956793 20.0759946,25.9159373 20.0808864,26.0374259 L20.2892435,31.1526585 C20.3044164,31.5220459 20.4840861,31.8658396 20.7800809,32.091508 C21.0027818,32.261231 21.2740689,32.3508913 21.550082,32.3508913 C21.6410362,32.3508913 21.7325707,32.3411296 21.8228616,32.32136 L26.2471967,31.3520769 L26.2471967,38.6031613 L26.2472796,38.6031613 Z M25.8819705,28.8746462 L22.750312,29.560839 L22.6212185,26.3899969 L31.783295,14.6204582 L35.0369995,17.1143772 L25.8819705,28.8746462 Z M37.0505106,14.5275167 L36.576753,15.1361077 L33.3230485,12.6421888 L33.7896756,12.0427852 C34.4820714,11.1534007 35.7769866,10.987041 36.6758325,11.6720853 C37.5748443,12.3570476 37.7429892,13.637968 37.0505106,14.5275167 Z" id="Shape" fill-rule="nonzero"></path>
        </g>
    </g>
</svg>