<?xml version="1.0" encoding="utf-8"?>
<!-- Generator: Adobe Illustrator 22.0.0, SVG Export Plug-In . SVG Version: 6.00 Build 0)  -->
<svg version="1.1" xmlns="http://www.w3.org/2000/svg" xmlns:xlink="http://www.w3.org/1999/xlink" x="0px" y="0px"
	 viewBox="0 0 40 50" style="enable-background:new 0 0 40 50;" xml:space="preserve">
<style type="text/css">
	.st0{fill-rule:evenodd;clip-rule:evenodd;fill:none;stroke:#FFFFFF;stroke-width:0.5358;stroke-miterlimit:10;}
	.st1{fill:none;stroke:#FFFFFF;stroke-width:0.8037;stroke-miterlimit:10;}
	.st2{fill:none;stroke:#FFFFFF;stroke-width:0.8467;stroke-miterlimit:10;}
	.st3{display:none;}
	.st4{display:inline;fill-rule:evenodd;clip-rule:evenodd;fill:#52A271;}
	.st5{display:inline;fill-rule:evenodd;clip-rule:evenodd;fill:#356C50;}
	.st6{display:inline;fill:#FFFFFF;}
	.st7{display:inline;fill-rule:evenodd;clip-rule:evenodd;fill:#FFFFFF;}
</style>
<g id="Layer_1">
</g>
<g id="icons">
	<g>
		<g>
			<path class="st0" d="M32.8,42.8l4,4c0.9,0.9-1.1,3.1-2.1,2.1l-4-4l-0.1-0.1L32.8,42.8L32.8,42.8L32.8,42.8z"/>
			<path class="st0" d="M24.4,36.1c2.1-2.1,5.5-2.1,7.7,0c2.1,2.1,2.1,5.5,0,7.7c-2.1,2.1-5.5,2.1-7.7,0
				C22.3,41.7,22.3,38.2,24.4,36.1L24.4,36.1z M25.7,37.4c1.4-1.4,3.7-1.4,5.1,0c1.4,1.4,1.4,3.7,0,5.1c-1.4,1.4-3.7,1.4-5.1,0
				C24.3,41.1,24.3,38.8,25.7,37.4L25.7,37.4z"/>
		</g>
		<path class="st1" d="M33.7,5.9h-2.5l1.2,3.3c0.3,0.9,0.2,1.8-0.3,2.5c-0.5,0.7-1.3,1.1-2.3,1.1H8.3c-0.9,0-1.8-0.4-2.3-1.1
			C5.5,11,5.4,10.1,5.7,9.2l1.2-3.3H4.4C3.6,5.9,3,6.5,3,7.3v38.5c0,0.8,0.6,1.4,1.4,1.4h29.4c0.8,0,1.4-0.6,1.4-1.4V7.3
			C35.1,6.5,34.5,5.9,33.7,5.9z M7.2,16.2h23.6v2.6H7.2V16.2z M7.2,20.8h18.7v2.6H7.2V20.8z M7.2,25.4h23.6v2.6H7.2V25.4z M7.2,30
			h18.7v2.6H7.2V30z M8.3,11.1h21.6c0.4,0,0.7-0.1,0.9-0.4c0.2-0.3,0.2-0.6,0.1-1l-1.2-3.3c-0.3-0.8-1.2-1.4-2-1.4H24
			c-0.8,0-1.6-0.5-1.7-1.1c0-0.3-0.6-3.1-3.2-3.1c-2.6,0-3.1,2.8-3.2,3.1C15.8,4.5,15,5,14.1,5h-3.6c-0.8,0-1.7,0.6-2,1.4L7.3,9.8
			c-0.1,0.4-0.1,0.7,0.1,1C7.5,11,7.9,11.1,8.3,11.1z M19.1,1.7c0.7,0,1.3,0.6,1.3,1.3c0,0.7-0.6,1.3-1.3,1.3
			c-0.7,0-1.3-0.6-1.3-1.3C17.8,2.3,18.3,1.7,19.1,1.7z"/>
	</g>
</g>
<g id="Layer_5">
</g>
<g id="Layer_4">
</g>
<g id="Isolation_Mode" class="st3">
</g>
</svg>
