<?xml version="1.0" encoding="UTF-8"?>
<svg width="38px" height="48px" viewBox="0 0 38 48" version="1.1" xmlns="http://www.w3.org/2000/svg" xmlns:xlink="http://www.w3.org/1999/xlink">
    <!-- Generator: Sketch 52.1 (67048) - http://www.bohemiancoding.com/sketch -->
    <title>@2xtrack</title>
    <desc>Created with Sketch.</desc>
    <g id="track" stroke="none" stroke-width="1" fill="none" fill-rule="evenodd">
        <g id="814998" fill="#FFFFFF">
            <path d="M3.5,31 C3.223875,31 3,31.2985 3,31.6666667 L3,34.3333333 C3,34.7015 3.223875,35 3.5,35 C3.776125,35 4,34.7015 4,34.3333333 L4,31.6666667 C4,31.2985 3.776125,31 3.5,31 Z" id="Path"></path>
            <path d="M7.5,33 C7.223875,33 7,33.2985 7,33.6666667 L7,36.3333333 C7,36.7015 7.223875,37 7.5,37 C7.776125,37 8,36.7015 8,36.3333333 L8,33.6666667 C8,33.2985 7.776125,33 7.5,33 Z" id="Path"></path>
            <path d="M25.1961059,6.75121634 C24.9422109,6.38507187 24.4124593,6.27696647 24.0130834,6.50977111 C23.6372759,6.7287312 23.5070074,7.17509557 23.7134444,7.53672337 C24.8920746,9.41320147 24.1878104,11.810078 22.1403662,12.8903465 C20.0930292,13.9706151 17.4778028,13.3251247 16.2992797,11.4485484 C15.1206495,9.57207027 15.8249138,7.17519376 17.8723579,6.09492521 C18.9533939,5.52454892 20.2522225,5.41506888 21.428603,5.79525428 C21.881329,5.92172091 22.3603015,5.68793438 22.4982833,5.2729903 C22.6275877,4.88416432 22.4119376,4.46912204 22.0010989,4.31614455 C18.8774396,3.30362598 15.4496418,4.80364985 14.3449304,7.66662659 C13.2402191,10.5296033 14.8768246,13.6713369 18.0004839,14.6838555 C21.1241432,15.696374 24.5519409,14.1963502 25.6566523,11.3333734 C25.8838723,10.7447341 25.9999999,10.1248708 25.9999999,9.50049094 C26.0002141,8.53520099 25.722965,7.58699582 25.1961059,6.75121634 Z" id="Path"></path>
            <path d="M37.990913,15.9304 C37.9892608,15.9072 37.9851304,15.884 37.9809999,15.86 C37.9658206,15.7682 37.9342228,15.6797 37.8876521,15.5984 L37.8876521,15.5928 C37.8876521,15.5872 37.8777391,15.584 37.8744347,15.5784 C37.8256956,15.5051 37.7648749,15.4399 37.6943478,15.3856 C37.677413,15.3711 37.6598586,15.3575 37.6414782,15.3448 C37.6257826,15.3344 37.6133913,15.3208 37.5968695,15.3112 L28.8841304,10.3264 C28.9023043,10.0864 28.9130435,9.8464 28.9130435,9.6 C28.9130435,4.2981 24.474788,0 19,0 C13.525212,0 9.08695655,4.2981 9.08695655,9.6 C9.08695655,9.84 9.09769568,10.0864 9.11586959,10.3264 L0.405608746,15.3112 C0.15416853,15.4552 -0.000103209064,15.7171 5.1805252e-08,16 L5.1805252e-08,36.8 C-0.000103209064,37.0829 0.15416853,37.3448 0.405608746,37.4888 L18.5795217,47.8888 C18.6013098,47.899 18.6236141,47.9081 18.6464348,47.916 C18.6689457,47.9269 18.6921793,47.9365 18.7158261,47.9448 C18.8976685,48.0184 19.1023315,48.0184 19.2841739,47.9448 C19.3081304,47.9365 19.3315707,47.9269 19.3543913,47.916 C19.3758696,47.9064 19.399,47.9008 19.4204783,47.8888 L37.5943913,37.4888 C37.8458315,37.3448 38.0001032,37.0829 37.9999999,36.8 L37.9999999,16 C37.9999999,15.976 37.9925652,15.9536 37.990913,15.9304 Z M35.549826,16 L31.2541739,18.4584 L26.8478261,15.9376 C27.6427282,14.7311 28.2341032,13.4098 28.5999565,12.0232 L35.549826,16 Z M26.1563913,23.2328 L30.4239565,20.7904 L30.4239565,26.132 L26.1563913,28.5744 L26.1563913,23.2328 Z M25.3344348,21.8464 L22.8925217,20.4488 C23.995038,19.4757 25.004413,18.4082 25.9085652,17.2592 L29.6300869,19.388 L25.3344348,21.8464 Z M19,1.6 C23.5603098,1.6049 27.255913,5.1837 27.2608695,9.6 C27.2608695,15.3864 20.7752609,20.2176 19,21.432 C17.2247391,20.2176 10.7391305,15.3864 10.7391305,9.6 C10.7441902,5.1837 14.4396902,1.6049 19,1.6 Z M36.347826,36.344 L19.826087,45.7984 L19.826087,43.2 C19.826087,42.7582 19.4562065,42.4 19,42.4 C18.5437935,42.4 18.173913,42.7582 18.173913,43.2 L18.173913,45.7984 L1.65217396,36.344 L1.65217396,16.456 L9.39921742,12.0232 C10.9894348,18.3376 18.2127391,22.8632 18.5563913,23.0752 C18.827038,23.242 19.172962,23.242 19.4436087,23.0752 C20.1812011,22.606 20.8921522,22.0986 21.5732609,21.5552 L23.7086956,22.776 L19,25.4712 L4.04286961,16.9112 C3.65006526,16.6863 3.14336417,16.8124 2.91113048,17.1928 C2.67889678,17.5732 2.80910874,18.0639 3.20191309,18.2888 L18.173913,26.8568 L18.173913,40 C18.173913,40.4418 18.5437935,40.8 19,40.8 C19.4562065,40.8 19.826087,40.4418 19.826087,40 L19.826087,26.8568 L24.5075217,24.1776 L24.5075217,29.9768 C24.5074185,30.4186 24.8771956,30.7769 25.3334022,30.777 C25.481375,30.777 25.626663,30.7386 25.7540869,30.6656 L31.6738261,27.28 C31.9255761,27.1359 32.0797445,26.8736 32.0794347,26.5904 L32.0794347,19.8448 L36.347826,17.4024 L36.347826,36.344 Z" id="Shape" fill-rule="nonzero"></path>
        </g>
    </g>
</svg>