<?xml version="1.0" encoding="UTF-8"?>
<svg width="45px" height="18px" viewBox="0 0 45 18" version="1.1" xmlns="http://www.w3.org/2000/svg" xmlns:xlink="http://www.w3.org/1999/xlink">
    <!-- Generator: Sketch 51 (57462) - http://www.bohemiancoding.com/sketch -->
    <title>Al salem logo</title>
    <desc>Created with Sketch.</desc>
    <defs></defs>
    <g id="JC-" stroke="none" stroke-width="1" fill="none" fill-rule="evenodd">
        <g id="Al-salem-logo" fill="#FEFEFE">
            <path d="M7.47640945,5.7968475 C10.3942254,5.7968475 12.18431,7.4616225 12.18431,10.24176 C12.18431,10.702185 12.1106881,11.1093225 12.0124443,11.499135 C12.18431,12.61476 12.5377925,13.14606 14.3276333,13.14606 L14.8917428,13.14606 L14.8917428,14.6157975 L14.2540114,14.6157975 C12.6357925,14.5979475 11.9144443,14.3144475 10.9339567,13.4644725 C10.1243597,14.225985 8.97225025,14.6157975 7.47640945,14.6157975 L7.47640945,13.14606 C9.16800647,13.14606 10.0512254,12.136485 10.0512254,10.2063225 C10.0512254,8.1346725 9.19287214,7.12536 7.47640945,7.12536 L7.47640945,5.7968475 Z" id="Fill-1"></path>
            <path d="M7.47640945,7.12496625 C5.75970299,7.12496625 4.90159353,8.13454125 4.90159353,10.2059288 C4.90159353,12.1363538 5.78456866,13.1459288 7.47640945,13.1459288 L7.47640945,14.6156663 C5.98056866,14.6156663 4.8284592,14.2261163 4.01886219,13.4646038 C3.03813085,14.3148413 2.31678259,14.5978163 0.698563682,14.6156663 L0.0610761194,14.6156663 L0.0610761194,13.1459288 L0.625185572,13.1459288 C2.41478259,13.1459288 2.76850896,12.6146288 2.94013085,11.4987413 C2.84188706,11.1094538 2.76850896,10.7020538 2.76850896,10.2418913 C2.76850896,7.46149125 4.55859353,5.79671625 7.47640945,5.79671625 L7.47640945,7.12496625 Z" id="Fill-3"></path>
            <path d="M14.3839224,14.6157188 L14.3839224,13.1459813 C16.3456289,13.1459813 17.0494249,12.3671438 17.0494249,11.0386313 L17.0494249,3.08750625 L19.1581313,3.08750625 L19.1581313,11.1095063 C19.1581313,13.2872063 17.473604,14.6157188 14.3839224,14.6157188" id="Fill-5"></path>
            <path d="M20.0299413,11.109375 L20.0299413,3.0876375 L22.1386478,3.0876375 L22.1145134,11.0385 C22.1145134,12.36675 23.1198667,13.14585 25.0564637,13.14585 L25.0564637,14.615325 C21.9672697,14.615325 20.0299413,13.2876 20.0299413,11.109375" id="Fill-7"></path>
            <path d="M32.9572383,14.6157188 L24.5177806,14.6157188 L24.5177806,13.1459813 L25.5253279,13.1459813 L25.5253279,6.41653125 L27.5604124,6.41653125 L27.5604124,13.1459813 L30.0503925,13.1459813 L30.0503925,6.63230625 L32.159099,6.63230625 L32.159099,13.1459813 L32.8836164,13.1459813 C34.2078353,13.1459813 34.6488353,12.7737563 34.6488353,11.0386313 L34.6488353,6.32806875 L36.7577856,6.32806875 L36.7577856,11.7825563 C36.7577856,13.6418438 35.3111886,14.6157188 32.9572383,14.6157188" id="Fill-9"></path>
            <path d="M20.0299413,17.3632537 L20.0299413,15.4806037 L35.803797,15.4806037 C37.6916378,15.4806037 38.1752995,14.6665912 38.1752995,13.3737787 L38.1752995,3.04151625 L40.3083841,3.04151625 L40.3083841,13.4622412 C40.3083841,15.5517412 38.9132249,17.3632537 35.4849313,17.3632537 L20.0299413,17.3632537 Z" id="Fill-11"></path>
            <path d="M41.5095423,14.6156662 L43.6182488,14.6156662 L43.6182488,3.08745375 L41.5095423,3.08745375 L41.5095423,14.6156662 Z M43.5068408,1.97025375 C42.8464378,1.97025375 42.3074378,1.70696625 41.7162687,1.70696625 C41.4902836,1.70696625 41.3164677,1.74450375 41.0207612,1.84504125 L40.3081891,1.25494125 C40.6909254,1.01659125 41.0207612,0.92865375 41.4902836,0.92865375 C42.0814527,0.92865375 42.706995,1.20454125 43.2808557,1.20454125 C43.5763184,1.20454125 43.9415025,1.10400375 44.2888905,0.92865375 L44.9668458,1.56862875 C44.445398,1.86971625 44.0807015,1.97025375 43.5068408,1.97025375 Z" id="Fill-13"></path>
            <path d="M0.656487065,16.6500938 L1.10114378,16.6500938 L0.881740796,15.9127313 L0.656487065,16.6500938 Z M0.680621393,15.4845938 L1.09066119,15.4845938 L1.70474577,17.3580563 L1.31152687,17.3580563 L1.19694975,16.9727063 L0.557999502,16.9727063 L0.440253234,17.3580563 L0.0611736318,17.3580563 L0.680621393,15.4845938 Z" id="Fill-15"></path>
            <polygon id="Fill-16" points="4.10440498 17.0210062 4.10440498 17.3580562 2.8752607 17.3580562 2.8752607 15.4843312 3.23776318 15.4843312 3.23776318 17.0210062"></polygon>
            <path d="M7.13667612,16.7795325 C7.14789005,16.8651075 7.17007413,16.9291575 7.2027408,16.97142 C7.26319851,17.048595 7.36583035,17.087445 7.51161144,17.087445 C7.59912886,17.087445 7.67006915,17.0772075 7.72443234,17.0567325 C7.8280393,17.01762 7.8797209,16.94517 7.8797209,16.8393825 C7.8797209,16.77717 7.85412388,16.7296575 7.80366119,16.695795 C7.75295473,16.66272 7.67275075,16.63332 7.56280547,16.6078575 L7.37509403,16.563495 C7.19030796,16.519395 7.06329801,16.47162 6.99430796,16.4199075 C6.87729303,16.333545 6.81902935,16.1983575 6.81902935,16.0146075 C6.81902935,15.8466075 6.87631791,15.7069575 6.99040746,15.596445 C7.10498458,15.4854075 7.27319353,15.429495 7.49479055,15.429495 C7.6798204,15.429495 7.83779055,15.4822575 7.96845721,15.5867325 C8.09912388,15.6912075 8.16762637,15.843195 8.17396468,16.0424325 L7.82535771,16.0424325 C7.8190194,15.9295575 7.77221343,15.849495 7.68567114,15.8019825 C7.62765124,15.770745 7.55573582,15.7552575 7.46943731,15.7552575 C7.37387512,15.7552575 7.29708408,15.7757325 7.2400393,15.8161575 C7.18299453,15.856845 7.15447214,15.9138075 7.15447214,15.98652 C7.15447214,16.0534575 7.18250697,16.103595 7.23906418,16.13667 C7.27514378,16.1584575 7.35193483,16.184445 7.46943731,16.2141075 L7.7739199,16.291545 C7.90751194,16.32567 8.00746219,16.3705575 8.07425821,16.42752 C8.17762139,16.51572 8.22930299,16.643295 8.22930299,16.8099825 C8.22930299,16.981395 8.16811393,17.12367 8.04573582,17.236545 C7.92311393,17.3496825 7.75002935,17.4063825 7.52623831,17.4063825 C7.29757164,17.4063825 7.11814876,17.3507325 6.98723831,17.23917 C6.85632786,17.127345 6.79075075,16.9743075 6.79075075,16.7795325 L7.13667612,16.7795325 Z" id="Fill-17"></path>
            <path d="M9.90588308,16.6500938 L10.350296,16.6500938 L10.1311368,15.9127313 L9.90588308,16.6500938 Z M9.92977363,15.4845938 L10.3398134,15.4845938 L10.953898,17.3580563 L10.5606791,17.3580563 L10.4463458,16.9727063 L9.80739552,16.9727063 L9.68940547,17.3580563 L9.31032587,17.3580563 L9.92977363,15.4845938 Z" id="Fill-18"></path>
            <polygon id="Fill-19" points="12.1246567 15.4844625 12.4871592 15.4844625 12.4871592 17.0211375 13.3535572 17.0211375 13.3535572 17.3581875 12.1246567 17.3581875"></polygon>
            <polygon id="Fill-20" points="15.8306657 15.8161838 14.9120985 15.8161838 14.9120985 16.2141338 15.7550935 16.2141338 15.7550935 16.5393713 14.9120985 16.5393713 14.9120985 17.0213213 15.8730836 17.0213213 15.8730836 17.3578463 14.5578846 17.3578463 14.5578846 15.4843838 15.8306657 15.4843838"></polygon>
            <path d="M18.2565801,15.4844625 L18.7782716,15.4844625 L18.7782716,17.3581875 L18.440391,17.3581875 L18.440391,16.0908375 C18.440391,16.0540875 18.4408786,16.003425 18.4418537,15.9375375 C18.4425851,15.8719125 18.4428289,15.82125 18.4428289,15.78555 L18.1139682,17.3581875 L17.7617045,17.3581875 L17.4350378,15.78555 C17.4350378,15.82125 17.4355254,15.8719125 17.4362567,15.9375375 C17.4369881,16.003425 17.4374756,16.0540875 17.4374756,16.0908375 L17.4374756,17.3581875 L17.099595,17.3581875 L17.099595,15.4844625 L17.6271373,15.4844625 L17.9430776,16.9576125 L18.2565801,15.4844625 Z" id="Fill-21"></path>
        </g>
    </g>
</svg>