<?xml version="1.0" encoding="UTF-8"?>
<svg width="124px" height="112px" viewBox="0 0 124 112" version="1.1" xmlns="http://www.w3.org/2000/svg" xmlns:xlink="http://www.w3.org/1999/xlink">
    <!-- Generator: Sketch 51 (57462) - http://www.bohemiancoding.com/sketch -->
    <title>Group 4@2x</title>
    <desc>Created with Sketch.</desc>
    <defs>
        <linearGradient x1="0%" y1="50%" x2="74.2004097%" y2="50%" id="linearGradient-1">
            <stop stop-color="#0068A9" offset="0%"></stop>
            <stop stop-color="#029EC1" offset="100%"></stop>
        </linearGradient>
    </defs>
    <g id="JC-" stroke="none" stroke-width="1" fill="none" fill-rule="evenodd">
        <g id="OLD-2" transform="translate(-54.000000, -350.000000)">
            <rect fill="#FFFFFF" x="0" y="0" width="360" height="800"></rect>
            <g id="Group-4" transform="translate(54.000000, 350.000000)">
                <rect id="Rectangle-2-Copy-2" stroke="#E4E4E4" stroke-width="1.12" fill="#FFFFFF" fill-rule="nonzero" x="0.56" y="0.56" width="122.08" height="110.88" rx="8.96"></rect>
                <text id="Our-Services" font-family="Roboto-Medium, Roboto" font-size="15.68" font-weight="400" fill="#4A4A4A">
                    <tspan x="14.56" y="94.4">Our Services </tspan>
                </text>
                <g id="126141" transform="translate(36.960000, 31.360000)" fill="url(#linearGradient-1)" fill-rule="nonzero">
                    <path d="M45.9513199,6.68649215 C44.5952931,5.12921466 42.6639821,4.26890052 40.5169396,4.26890052 L35.3496555,4.26890052 L35.3496555,1.30680628 C35.3496555,0.588062827 34.7949172,0 34.1169038,0 L9.50296197,0 C8.82494855,0 8.27021029,0.588062827 8.27021029,1.30680628 L8.27021029,5.85884817 L3.47275168,5.85884817 C2.79473826,5.85884817 2.24,6.44691099 2.24,7.16565445 C2.24,7.88439791 2.79473826,8.47246073 3.47275168,8.47246073 L9.47214318,8.47246073 C9.48241611,8.47246073 9.49268904,8.47246073 9.50296197,8.47246073 C9.50296197,8.47246073 9.50296197,8.47246073 9.5132349,8.47246073 C10.1912483,8.47246073 10.7459866,7.88439791 10.7459866,7.16565445 L10.7459866,2.61361257 L32.8944251,2.61361257 L32.8944251,5.57570681 L32.8944251,23.097801 L21.2860134,23.097801 C21.2346488,23.097801 21.1832841,23.097801 21.1319195,23.1086911 C20.5155436,21.4969634 19.0259687,20.3535079 17.2898434,20.3535079 C15.5434452,20.3535079 14.0538702,21.5078534 13.4477673,23.1304712 C13.355311,23.1086911 13.2731275,23.097801 13.1806711,23.097801 L10.7459866,23.097801 L10.7459866,18.5348691 C10.7459866,17.8161257 10.1912483,17.2280628 9.5132349,17.2280628 C9.49268904,17.2280628 9.47214318,17.2280628 9.45159732,17.2280628 C9.43105145,17.2280628 9.42077852,17.2280628 9.40023266,17.2280628 L3.47275168,17.2280628 C2.79473826,17.2280628 2.24,17.8161257 2.24,18.5348691 C2.24,19.2536126 2.79473826,19.8416754 3.47275168,19.8416754 L8.27021029,19.8416754 L8.27021029,24.3937173 C8.27021029,25.1124607 8.82494855,25.7005236 9.50296197,25.7005236 L13.1703982,25.7005236 C13.201217,25.7005236 13.2217629,25.7005236 13.2525817,25.7005236 C13.6634989,27.660733 15.3174407,29.12 17.2898434,29.12 C19.2622461,29.12 20.905915,27.660733 21.3271051,25.7005236 L34.1271767,25.7005236 L36.0995794,25.7005236 C36.5207696,27.6498429 38.1644385,29.12 40.1368412,29.12 C42.1092438,29.12 43.7529128,27.660733 44.1741029,25.7005236 L46.9272483,25.7005236 C47.6052617,25.7005236 48.16,25.1124607 48.16,24.3937173 L48.16,13.5363351 C48.16,10.7158115 47.3895302,8.3417801 45.9513199,6.68649215 Z M17.2898434,26.5172775 C16.3652796,26.5172775 15.6153557,25.7223037 15.6153557,24.742199 C15.6153557,23.7620942 16.3652796,22.9671204 17.2898434,22.9671204 C18.2144072,22.9671204 18.9643311,23.7620942 18.9643311,24.742199 C18.9643311,25.7223037 18.2144072,26.5172775 17.2898434,26.5172775 Z M40.1368412,26.5172775 C39.2122774,26.5172775 38.4623535,25.7223037 38.4623535,24.742199 C38.4623535,23.7620942 39.2122774,22.9671204 40.1368412,22.9671204 C41.0614049,22.9671204 41.8113289,23.7620942 41.8113289,24.742199 C41.8010559,25.7223037 41.051132,26.5172775 40.1368412,26.5172775 Z M45.6944966,23.097801 L43.9686443,23.097801 C43.3522685,21.4969634 41.8626935,20.3535079 40.1368412,20.3535079 C38.4109888,20.3535079 36.9214139,21.4860733 36.305038,23.097801 L35.3599284,23.097801 L35.3599284,6.88251309 L40.5272125,6.88251309 C43.7631857,6.88251309 45.6944966,9.37633508 45.6944966,13.5472251 L45.6944966,23.097801 Z" id="Shape"></path>
                    <path d="M17.9304398,14.9075066 C17.5215458,15.3413953 17.5215458,16.0430026 17.9304398,16.4768914 C18.1305369,16.6892199 18.400233,16.8 18.6699291,16.8 C18.9396252,16.8 19.2006214,16.6892199 19.4094184,16.4768914 L22.0976794,13.6243038 L22.1063793,13.6150721 C22.123779,13.5873771 22.1498786,13.5689137 22.1672784,13.5412187 C22.1759783,13.5227554 22.1846781,13.5135237 22.193378,13.4950603 C22.2020779,13.476597 22.2107777,13.4673653 22.2281775,13.448902 C22.2368774,13.4304386 22.2455772,13.4119753 22.2542771,13.3935119 C22.262977,13.3750486 22.2716769,13.3658169 22.2803767,13.3473535 C22.2890766,13.3288902 22.2977765,13.3104268 22.3064764,13.2919635 C22.3151762,13.2735001 22.3238761,13.2642685 22.3238761,13.2458051 C22.332576,13.2273418 22.332576,13.2088784 22.3412759,13.1904151 C22.3499757,13.1719517 22.3499757,13.1534884 22.3586756,13.1442567 C22.3673755,13.1257933 22.3673755,13.10733 22.3673755,13.0888666 C22.3673755,13.0704033 22.3760753,13.0519399 22.3760753,13.0334766 C22.3760753,13.0150132 22.3847752,12.9965499 22.3847752,12.9688549 C22.3847752,12.9503915 22.3934751,12.9411598 22.3934751,12.9226965 C22.402175,12.8488431 22.402175,12.7749897 22.3934751,12.7011363 C22.3934751,12.6826729 22.3934751,12.6734413 22.3847752,12.6549779 C22.3847752,12.6365146 22.3760753,12.6180512 22.3760753,12.5903562 C22.3760753,12.5718928 22.3673755,12.5534295 22.3673755,12.5349661 C22.3673755,12.5165028 22.3586756,12.4980394 22.3586756,12.4795761 C22.3499757,12.4611127 22.3499757,12.4426494 22.3412759,12.4334177 C22.332576,12.4149544 22.332576,12.396491 22.3238761,12.3780277 C22.3151762,12.3595643 22.3064764,12.3503326 22.3064764,12.3318693 C22.2977765,12.3134059 22.2890766,12.2949426 22.2803767,12.2764792 C22.2716769,12.2580159 22.262977,12.2487842 22.2542771,12.2303209 C22.2455772,12.2118575 22.2368774,12.1933942 22.2281775,12.1749308 C22.2194776,12.1564675 22.2107777,12.1472358 22.193378,12.1287724 C22.1846781,12.1103091 22.1759783,12.1010774 22.1672784,12.0826141 C22.1498786,12.054919 22.123779,12.0364557 22.1063793,12.0087607 L22.0976794,11.999529 L19.5399165,9.28541654 C19.1310224,8.85152782 18.469832,8.85152782 18.060938,9.28541654 C17.6520439,9.71930527 17.6520439,10.4209126 18.060938,10.8548013 L18.8352267,11.6764204 L1.04398485,11.6764204 C0.469793184,11.6764204 0,12.1749308 0,12.7842214 C0,13.3935119 0.469793184,13.8920224 1.04398485,13.8920224 L18.8265268,13.8920224 L17.9304398,14.9075066 Z" id="Shape"></path>
                </g>
            </g>
        </g>
    </g>
</svg>