<?xml version="1.0" encoding="UTF-8"?>
<svg width="74px" height="75px" viewBox="0 0 74 75" version="1.1" xmlns="http://www.w3.org/2000/svg" xmlns:xlink="http://www.w3.org/1999/xlink">
    <!-- Generator: Sketch 51 (57462) - http://www.bohemiancoding.com/sketch -->
    <title>window ac icon</title>
    <desc>Created with Sketch.</desc>
    <defs>
        <polygon id="path-1" points="0.0006 1.00583137 74.001 1.00583137 74.001 75.4901961 0.0006 75.4901961"></polygon>
        <polygon id="path-3" points="0 75.9944706 74.001 75.9944706 74.001 1.50980392 0 1.50980392"></polygon>
    </defs>
    <g id="JC-" stroke="none" stroke-width="1" fill="none" fill-rule="evenodd">
        <g id="OUR-STORE-" transform="translate(-142.000000, -222.000000)">
            <rect fill="#FFFFFF" x="0" y="0" width="360" height="640"></rect>
            <g id="window-ac-icon" transform="translate(142.000000, 221.000000)">
                <g id="Group-3" transform="translate(0.000000, 0.504275)">
                    <mask id="mask-2" fill="white">
                        <use xlink:href="#path-1"></use>
                    </mask>
                    <g id="Clip-2"></g>
                    <path d="M74.0016,38.2496745 C74.0016,58.8147137 57.4341,75.490498 37.0011,75.490498 C16.5666,75.490498 0.0006,58.8147137 0.0006,38.2496745 C0.0006,17.6816157 16.5666,1.00583137 37.0011,1.00583137 C57.4341,1.00583137 74.0016,17.6816157 74.0016,38.2496745" id="Fill-1" fill="#02549E" mask="url(#mask-2)"></path>
                </g>
                <mask id="mask-4" fill="white">
                    <use xlink:href="#path-3"></use>
                </mask>
                <g id="Clip-5"></g>
                <path d="M14.442,53.7339216 L59.559,53.7339216 L59.559,25.9112549 L14.442,25.9112549 L14.442,53.7339216 Z M12.957,55.2286275 L61.0455,55.2286275 L61.0455,24.416549 L12.957,24.416549 L12.957,55.2286275 Z" id="Fill-4" fill="#FEFEFE" mask="url(#mask-4)"></path>
                <path d="M43.7292,30.0579314 L16.1862,30.0579314 C15.7752,30.0579314 15.4437,29.7242647 15.4437,29.3120882 C15.4437,28.898402 15.7752,28.5632255 16.1862,28.5632255 L43.7292,28.5632255 C44.1387,28.5632255 44.4717,28.898402 44.4717,29.3120882 C44.4717,29.7242647 44.1387,30.0579314 43.7292,30.0579314" id="Fill-6" fill="#FEFEFE" mask="url(#mask-4)"></path>
                <path d="M57.37425,30.0579314 L47.43375,30.0579314 C47.02425,30.0579314 46.69125,29.7242647 46.69125,29.3120882 C46.69125,28.898402 47.02425,28.5632255 47.43375,28.5632255 L57.37425,28.5632255 C57.78375,28.5632255 58.11675,28.898402 58.11675,29.3120882 C58.11675,29.7242647 57.78375,30.0579314 57.37425,30.0579314" id="Fill-7" fill="#FEFEFE" mask="url(#mask-4)"></path>
                <path d="M57.37425,34.2334451 L47.43375,34.2334451 C47.02425,34.2334451 46.69125,33.8997784 46.69125,33.487602 C46.69125,33.0739157 47.02425,32.7387392 47.43375,32.7387392 L57.37425,32.7387392 C57.78375,32.7387392 58.11675,33.0739157 58.11675,33.487602 C58.11675,33.8997784 57.78375,34.2334451 57.37425,34.2334451" id="Fill-8" fill="#FEFEFE" mask="url(#mask-4)"></path>
                <path d="M57.37425,38.4089588 L47.43375,38.4089588 C47.02425,38.4089588 46.69125,38.0752922 46.69125,37.6631157 C46.69125,37.2494294 47.02425,36.9142529 47.43375,36.9142529 L57.37425,36.9142529 C57.78375,36.9142529 58.11675,37.2494294 58.11675,37.6631157 C58.11675,38.0752922 57.78375,38.4089588 57.37425,38.4089588" id="Fill-9" fill="#FEFEFE" mask="url(#mask-4)"></path>
                <path d="M57.37425,42.5846235 L47.43375,42.5846235 C47.02425,42.5846235 46.69125,42.2479373 46.69125,41.8357608 C46.69125,41.4220745 47.02425,41.0899176 47.43375,41.0899176 L57.37425,41.0899176 C57.78375,41.0899176 58.11675,41.4220745 58.11675,41.8357608 C58.11675,42.2479373 57.78375,42.5846235 57.37425,42.5846235" id="Fill-10" fill="#FEFEFE" mask="url(#mask-4)"></path>
                <path d="M43.7292,34.2334451 L16.1862,34.2334451 C15.7752,34.2334451 15.4437,33.8997784 15.4437,33.487602 C15.4437,33.0739157 15.7752,32.7387392 16.1862,32.7387392 L43.7292,32.7387392 C44.1387,32.7387392 44.4717,33.0739157 44.4717,33.487602 C44.4717,33.8997784 44.1387,34.2334451 43.7292,34.2334451" id="Fill-11" fill="#FEFEFE" mask="url(#mask-4)"></path>
                <path d="M43.7292,38.4089588 L16.1862,38.4089588 C15.7752,38.4089588 15.4437,38.0752922 15.4437,37.6631157 C15.4437,37.2494294 15.7752,36.9142529 16.1862,36.9142529 L43.7292,36.9142529 C44.1387,36.9142529 44.4717,37.2494294 44.4717,37.6631157 C44.4717,38.0752922 44.1387,38.4089588 43.7292,38.4089588" id="Fill-12" fill="#FEFEFE" mask="url(#mask-4)"></path>
                <path d="M43.7292,42.5846235 L16.1862,42.5846235 C15.7752,42.5846235 15.4437,42.2479373 15.4437,41.8357608 C15.4437,41.4220745 15.7752,41.0899176 16.1862,41.0899176 L43.7292,41.0899176 C44.1387,41.0899176 44.4717,41.4220745 44.4717,41.8357608 C44.4717,42.2479373 44.1387,42.5846235 43.7292,42.5846235" id="Fill-13" fill="#FEFEFE" mask="url(#mask-4)"></path>
                <path d="M43.7292,46.7601373 L16.1862,46.7601373 C15.7752,46.7601373 15.4437,46.423451 15.4437,46.0112745 C15.4437,45.5975882 15.7752,45.2654314 16.1862,45.2654314 L43.7292,45.2654314 C44.1387,45.2654314 44.4717,45.5975882 44.4717,46.0112745 C44.4717,46.423451 44.1387,46.7601373 43.7292,46.7601373" id="Fill-14" fill="#FEFEFE" mask="url(#mask-4)"></path>
                <path d="M43.7292,50.935651 L16.1862,50.935651 C15.7752,50.935651 15.4437,50.5989647 15.4437,50.1867882 C15.4437,49.773102 15.7752,49.4409451 16.1862,49.4409451 L43.7292,49.4409451 C44.1387,49.4409451 44.4717,49.773102 44.4717,50.1867882 C44.4717,50.5989647 44.1387,50.935651 43.7292,50.935651" id="Fill-15" fill="#FEFEFE" mask="url(#mask-4)"></path>
                <path d="M47.631,51.4042941 L57.1755,51.4042941 L57.1755,46.7601373 L47.631,46.7601373 L47.631,51.4042941 Z M46.146,52.899 L58.662,52.899 L58.662,45.2639216 L46.146,45.2639216 L46.146,52.899 Z" id="Fill-16" fill="#FEFEFE" mask="url(#mask-4)"></path>
                <path d="M56.49825,48.9128157 C56.49825,49.6767765 55.88025,50.2988157 55.12425,50.2988157 C54.36525,50.2988157 53.74725,49.6767765 53.74725,48.9128157 C53.74725,48.1518745 54.36525,47.5298353 55.12425,47.5298353 C55.88025,47.5298353 56.49825,48.1518745 56.49825,48.9128157" id="Fill-17" fill="#FEFEFE" mask="url(#mask-4)"></path>
                <path d="M51.06075,48.9128157 C51.06075,49.6767765 50.44275,50.2988157 49.68675,50.2988157 C48.92775,50.2988157 48.30975,49.6767765 48.30975,48.9128157 C48.30975,48.1518745 48.92775,47.5298353 49.68675,47.5298353 C50.44275,47.5298353 51.06075,48.1518745 51.06075,48.9128157" id="Fill-18" fill="#FEFEFE" mask="url(#mask-4)"></path>
            </g>
        </g>
    </g>
</svg>